<?xml version="1.0" encoding="UTF-8" standalone="no"?>
<svg width="77px" height="34px" viewBox="0 0 77 34" version="1.1" xmlns="http://www.w3.org/2000/svg" xmlns:xlink="http://www.w3.org/1999/xlink">
    <!-- Generator: Sketch Internal 3.5 (25638) - http://www.bohemiancoding.com/sketch -->
    <title>logo-google</title>
    <desc>Created with Sketch Internal.</desc>
    <defs></defs>
    <g id="@SVG" stroke="none" stroke-width="1" fill="none" fill-rule="evenodd">
        <g id="logos-companies" transform="translate(-1862.000000, 0.000000)">
            <g id="logo-google" transform="translate(1861.673469, 0.000000)">
                <path d="M0.326530612,0 L77.3265306,0 L77.3265306,34 L0.326530612,34 L0.326530612,0 Z" id="bounds" style="fill-opacity: 0;" fill="#F9FAFB"></path>
                <path d="M10.2726238,14.8289035 L10.2726238,17.4690187 L16.6448106,17.4690187 C16.3300127,21.1711789 13.2195087,22.7500122 10.2834145,22.7500122 C6.52698987,22.7500122 3.24905922,19.8233013 3.24905922,15.7212046 C3.24905922,11.7251215 6.3737608,8.64759489 10.2916618,8.64759489 C13.3143905,8.64759489 15.0955629,10.5556889 15.0955629,10.5556889 L16.9623678,8.64141266 C16.9623678,8.64141266 14.5662751,6 10.1962405,6 C4.63151229,5.99992368 0.326530612,10.6506356 0.326530612,15.6740365 C0.326530612,20.5963847 4.37607911,25.3961569 10.3380621,25.3961569 C15.5816875,25.3961569 19.420045,21.8391645 19.420045,16.5792363 C19.420045,15.4695651 19.2573432,14.8282166 19.2573432,14.8282166 L10.2726238,14.8289035 Z M26.6175724,12.916917 C22.9308253,12.916917 20.2887028,15.771044 20.2887028,19.0997521 C20.2887028,22.477689 22.851436,25.384861 26.6608896,25.384861 C30.1094688,25.384861 32.9347262,22.7748174 32.9347262,19.172336 C32.9347262,15.0433733 29.6483171,12.916917 26.6175724,12.916917 L26.6175724,12.916917 Z M26.6542325,15.3656122 C28.4672377,15.3656122 30.185284,16.8170611 30.185284,19.1558501 C30.185284,21.4450286 28.47456,22.937845 26.6459082,22.937845 C24.6366649,22.937845 23.0515764,21.3443575 23.0515764,19.137685 C23.0515764,16.9783332 24.6170103,15.3656122 26.6542325,15.3656122 L26.6542325,15.3656122 Z M40.381983,12.916917 C36.6952359,12.916917 34.0531135,15.771044 34.0531135,19.0997521 C34.0531135,22.477689 36.6158466,25.384861 40.4253003,25.384861 C43.8738794,25.384861 46.6991368,22.7748174 46.6991368,19.172336 C46.6991368,15.0433733 43.4127277,12.916917 40.381983,12.916917 L40.381983,12.916917 Z M40.4186424,15.3656122 C42.2316476,15.3656122 43.9496939,16.8170611 43.9496939,19.1558501 C43.9496939,21.4450286 42.2389699,22.937845 40.4103181,22.937845 C38.4010748,22.937845 36.8159863,21.3443575 36.8159863,19.137685 C36.8159863,16.9783332 38.3814202,15.3656122 40.4186424,15.3656122 L40.4186424,15.3656122 Z M53.8827903,12.9234809 C50.4988017,12.9234809 47.8388744,15.8583584 47.8388744,19.1524918 C47.8388744,22.9047968 50.9226481,25.393104 53.824443,25.393104 C55.6187185,25.393104 56.5727776,24.6878343 57.2771843,23.8783063 L57.2771843,25.1075768 C57.2771843,27.2583803 55.9583968,28.5463438 53.9678062,28.5463438 C52.0448122,28.5463438 51.0802706,27.1304617 50.7450627,26.3270015 L48.3255386,27.3285982 C49.1838681,29.1257938 50.9117803,31 53.9878463,31 C57.3524115,31 59.9167633,28.9014782 59.9167633,24.500345 L59.9167633,13.2983068 L57.2772614,13.2983068 L57.2772614,14.3543224 C56.4656406,13.4882767 55.3557318,12.9236335 53.8827903,12.9236335 L53.8827903,12.9234809 Z M54.127741,15.367215 C55.7868234,15.367215 57.4904564,16.7700457 57.4904564,19.1656958 C57.4904564,21.600729 55.7904461,22.9427297 54.0910524,22.9427297 C52.2869881,22.9427297 50.6083281,21.4921967 50.6083281,19.1888219 C50.6083281,16.7954615 52.3517328,15.367215 54.1276639,15.367215 L54.127741,15.367215 Z M71.6528926,12.9085977 C68.4608258,12.9085977 65.7806273,15.4234656 65.7806273,19.1343268 C65.7806273,23.0609552 68.7680547,25.3897458 71.959505,25.3897458 C74.6231319,25.3897458 76.2579351,23.9467688 77.2335758,22.6539206 L75.0573067,21.2200261 C74.4925789,22.0879036 73.5484473,22.9360895 71.9728393,22.9360895 C70.2029972,22.9360895 69.3892182,21.9763946 68.8850576,21.0467712 L77.3265306,17.5783143 L76.8882785,16.5618345 C76.0728038,14.5713108 74.1705435,12.9089793 71.6532087,12.9089793 L71.6528926,12.9085977 Z M71.7628661,15.306156 C72.9130862,15.306156 73.7408932,15.9117239 74.0924414,16.6377766 L68.4551067,18.9709939 C68.2120675,17.1646395 69.9403034,15.306156 71.7628661,15.306156 Z M61.7562059,25.0196518 L64.5290509,25.0196518 L64.5290509,6.64470679 L61.7562059,6.64470679 L61.7562059,25.0196518 Z" id="Google" fill="#8F9CB3"></path>
            </g>
        </g>
    </g>
</svg>