<?xml version="1.0" encoding="UTF-8" standalone="no"?>
<svg width="97px" height="34px" viewBox="0 0 97 34" version="1.1" xmlns="http://www.w3.org/2000/svg" xmlns:xlink="http://www.w3.org/1999/xlink">
    <!-- Generator: Sketch Internal 3.5 (25638) - http://www.bohemiancoding.com/sketch -->
    <title>logo-groupon</title>
    <desc>Created with Sketch Internal.</desc>
    <defs></defs>
    <g id="@SVG" stroke="none" stroke-width="1" fill="none" fill-rule="evenodd">
        <g id="logos-companies" transform="translate(-2169.000000, 0.000000)">
            <g id="logo-groupon" transform="translate(2168.061224, 0.000000)">
                <rect id="bounds" style="fill-opacity: 0;" fill="#F9FAFB" x="0.93877551" y="0" width="97" height="34"></rect>
                <path d="M8.66947755,25.8156 C6.46144082,25.8156 4.58003673,25.002 3.07792245,23.3972 C1.6585551,21.878 0.93877551,19.9768 0.93877551,17.7464 C0.93877551,15.6388 1.72982041,13.7372 3.2256,12.2468 C4.72296327,10.756 6.56873469,10 8.71184082,10 C11.9567878,10 14.7163388,11.9812 15.9306204,15.176 L11.7817918,15.176 C10.8482163,14.1676 9.84773061,13.6908 8.66947755,13.6908 C6.45629388,13.6908 4.65526122,15.5196 4.65526122,17.7672 C4.65526122,20.1292 6.4935102,22.1248 8.66947755,22.1248 C10.1213102,22.1248 11.3803306,21.362 12.1234694,20.0324 L12.1650408,19.9576 L7.80241633,19.9576 L7.80241633,16.9992 L16.3396041,16.9992 C16.3601918,17.334 16.3791959,17.6604 16.3791959,17.9616 C16.3791959,19.6716 15.956751,21.128 15.0877102,22.4132 C13.6390449,24.5436 11.2397796,25.8156 8.66947755,25.8156 Z M24.0037918,25.514 L21.0268816,20.4492 L21.0268816,25.514 L17.416898,25.514 L17.416898,10.3012 L22.3983429,10.3012 C24.0742653,10.3012 25.235098,10.4372 26.2062857,11.1328 C27.5508245,12.0804 28.2322,13.5084 28.2322,15.3776 C28.2322,17.84 26.9628857,19.6652 24.8368041,20.2608 L24.7687061,20.28 L28.4630204,25.5144 L24.0037918,25.5144 L24.0037918,25.514 Z M21.0268816,17.3652 L21.800902,17.3652 C23.7741592,17.3652 24.5790612,16.8144 24.5790612,15.4636 C24.5790612,14.1924 23.8145429,13.6256 22.0998204,13.6256 L21.0272776,13.6256 L21.0272776,17.3652 L21.0268816,17.3652 Z M36.6589265,25.7936 C34.4227796,25.7936 32.5346449,24.9872 31.0463878,23.3972 C29.6266245,21.8776 28.9068449,19.9764 28.9068449,17.7464 C28.9068449,15.6384 29.6978898,13.7372 31.1944612,12.2468 C32.6771755,10.7704 34.5229469,10.0216 36.680702,10.0216 C38.6939469,10.0216 40.604649,10.8196 42.059649,12.2684 C43.5625551,13.7656 44.3904204,15.734 44.3904204,17.8108 C44.3904204,19.994 43.6358,21.9332 42.2085143,23.4188 C40.7558898,24.9504 38.7850082,25.7936 36.6589265,25.7936 Z M36.7012898,13.712 C34.4144653,13.712 32.6233306,15.5032 32.6233306,17.7892 C32.6233306,20.1276 34.4714776,22.1028 36.6589265,22.1028 C38.9354571,22.1028 40.6521592,20.2484 40.6521592,17.7892 C40.6521592,15.5412 38.8796327,13.712 36.7012898,13.712 Z M50.8989224,25.7504 C47.4354286,25.7504 45.4487102,23.5944 45.4487102,19.8352 L45.4487102,10.3012 L49.0796776,10.3012 L49.0796776,19.6844 C49.0796776,21.496 49.664449,22.34 50.9195102,22.34 C52.2438571,22.34 52.8876204,21.4716 52.8876204,19.6844 L52.8876204,10.3012 L56.4976041,10.3012 L56.4976041,19.8352 C56.4976041,23.484 54.3521224,25.7504 50.8989224,25.7504 Z M57.6663551,25.514 L57.6663551,10.3012 L62.6478,10.3012 C64.3237224,10.3012 65.4845551,10.4372 66.4557429,11.1328 C67.8002816,12.0808 68.4812612,13.516 68.4812612,15.3992 C68.4812612,17.3324 67.6122204,18.9728 66.0966449,19.9 C65.1595061,20.4676 63.9840245,20.5816 62.3916408,20.5816 L61.2767347,20.5816 L61.2767347,25.514 L57.6663551,25.514 Z M61.319098,17.3652 L62.0507551,17.3652 C64.0236163,17.3652 64.8289143,16.8144 64.8289143,15.4636 C64.8289143,14.1924 64.064,13.6256 62.3492776,13.6256 L61.319098,13.6256 L61.319098,17.3652 Z M76.8228653,25.7936 C74.5867184,25.7936 72.6981878,24.9872 71.2103265,23.3972 C69.7905633,21.8776 69.0707837,19.9764 69.0707837,17.7464 C69.0707837,15.6388 69.8618286,13.7372 71.3580041,12.2468 C72.8411143,10.7704 74.6868857,10.0216 76.8442449,10.0216 C78.8574898,10.0216 80.7677959,10.8196 82.2231918,12.2684 C83.726098,13.7656 84.5539633,15.734 84.5539633,17.8108 C84.5539633,19.994 83.7997388,21.9332 82.3720571,23.4188 C80.9198286,24.9504 78.9489469,25.7936 76.8228653,25.7936 Z M76.8652286,13.712 C74.5788,13.712 72.7872694,15.5032 72.7872694,17.7892 C72.7872694,20.1276 74.6354163,22.1028 76.8224694,22.1028 C79.099,22.1028 80.815702,20.2484 80.815702,17.7892 C80.816098,15.5412 79.0435714,13.712 76.8652286,13.712 Z M94.7140204,25.514 L88.9898327,16.8708 L88.9898327,25.514 L85.3794531,25.514 L85.3794531,10.3012 L88.6497388,10.3012 L94.2895959,18.9244 L94.2895959,10.3012 L97.8995796,10.3012 L97.8995796,25.514 L94.7140204,25.514 Z" id="Groupon" fill="#8F9CB3"></path>
            </g>
        </g>
    </g>
</svg>
