<?xml version="1.0" encoding="UTF-8" standalone="no"?>
<svg width="72px" height="34px" viewBox="0 0 72 34" version="1.1" xmlns="http://www.w3.org/2000/svg" xmlns:xlink="http://www.w3.org/1999/xlink">
    <!-- Generator: Sketch Internal 3.5 (25638) - http://www.bohemiancoding.com/sketch -->
    <title>logo-twitch</title>
    <desc>Created with Sketch Internal.</desc>
    <defs></defs>
    <g id="@SVG" stroke="none" stroke-width="1" fill="none" fill-rule="evenodd">
        <g id="logos-companies" transform="translate(-715.000000, 0.000000)">
            <g id="logo-twitch" transform="translate(715.000000, 0.000000)">
                <rect id="bounds" style="fill-opacity: 0;" fill="#F9FAFB" x="1.13686838e-13" y="0" width="71.4693878" height="34"></rect>
                <path d="M55.1771301,6 L51.5259192,9.72444218 L47.4684306,9.72444218 L45.4398207,11.7932516 L45.4398207,9.72444218 L41.7884306,9.72444218 L41.7884306,6 L27.9943497,6 L27.9943497,9.72444218 L11.36,9.72444218 L7.70834091,6 L1.13686838e-13,6 L1.13686838e-13,22.5518471 L3.6514798,26.2757407 L9.7370404,30 L15.0114798,30 L15.0114798,29.1722751 L17.0400896,30 L26.8717967,30 L28.6141654,27.9310077 L28.8423157,30 L35.2791111,30 L35.4096364,27.9310077 L37.7314798,30 L43.4113902,30 L43.8170404,27.9310077 L45.8457399,30 L52.3372197,30 L54.3656503,27.9310077 L54.3656503,30 L58.0171301,30 L60.857399,27.9310077 L60.857399,30 L64.9142601,30 L71,25.8619239 L71,13.4482443 L67.3485202,9.72444218 L62.8857399,9.72444218 L62.8857399,6 L55.1771301,6 Z M56.7998207,7.655267 L61.2627803,7.655267 L61.2627803,11.3791606 L66.5371301,11.3791606 L69.3772197,14.2758778 L69.3772197,24.6208394 L64.9142601,24.6208394 L64.9142601,15.9310534 L61.2627803,15.9310534 L61.2627803,24.6208394 L56.7998207,24.6208394 L56.7998207,7.655267 Z M35.7026907,21.7241222 L35.7026907,7.655267 L40.1658295,7.655267 L40.1658295,11.3791606 L43.8170404,11.3791606 L43.8170404,15.9310534 L40.1658295,15.9310534 L40.1658295,20.0689466 L43.8170404,20.0689466 L43.8170404,24.6208394 L38.5428699,24.6208394 L35.7026907,21.7241222 Z M29.6169508,7.655267 L34.0799104,7.655267 L34.0799104,9.72444218 L29.6169508,9.72444218 L29.6169508,7.655267 Z M1.62269066,21.7241222 L1.62269066,7.655267 L6.08565025,7.655267 L6.08565025,11.3791606 L9.7370404,11.3791606 L9.7370404,15.9310534 L6.08565025,15.9310534 L6.08565025,20.0689466 L9.7370404,20.0689466 L9.7370404,24.6208394 L4.4627803,24.6208394 L1.62269066,21.7241222 Z M45.4398207,21.7241222 L45.4398207,14.2758778 L48.28,11.3791606 L55.1771301,11.3791606 L55.1771301,15.9310534 L49.9029596,15.9310534 L49.9029596,20.0689466 L55.1771301,20.0689466 L55.1771301,24.6208394 L48.28,24.6208394 L45.4398207,21.7241222 Z M29.6169508,11.3791606 L34.0799104,11.3791606 L34.0799104,24.6208394 L29.6169508,24.6208394 L29.6169508,11.3791606 Z M23.5313902,20.0689466 L23.5313902,11.3791606 L27.9943497,11.3791606 L27.9943497,21.7241222 L25.1541705,24.6208394 L11.36,24.6208394 L11.36,11.3791606 L15.8226907,11.3791606 L15.8226907,20.0689466 L17.4458295,20.0689466 L17.4458295,11.3791606 L21.9084306,11.3791606 L21.9084306,20.0689466 L23.5313902,20.0689466 Z" id="Twitch" fill="#8F9CB3"></path>
            </g>
        </g>
    </g>
</svg>