<?xml version="1.0" encoding="UTF-8" standalone="no"?>
<svg width="135px" height="34px" viewBox="0 0 135 34" version="1.1" xmlns="http://www.w3.org/2000/svg" xmlns:xlink="http://www.w3.org/1999/xlink">
    <!-- Generator: Sketch Internal 3.5 (25638) - http://www.bohemiancoding.com/sketch -->
    <title>logo-foursquare</title>
    <desc>Created with Sketch Internal.</desc>
    <defs></defs>
    <g id="@SVG" stroke="none" stroke-width="1" fill="none" fill-rule="evenodd">
        <g id="logos-companies" transform="translate(-494.000000, 0.000000)">
            <g id="logo-foursquare" transform="translate(493.040816, 0.000000)">
                <rect id="bounds" style="fill-opacity: 0;" fill="#F9FAFB" x="0.959183673" y="0" width="135" height="34"></rect>
                <path d="M39.6997513,10.1999841 L36.4691958,10.1999841 C36.2438398,10.1999841 36.0609225,10.3711338 36.0609225,10.5960407 L36.0609225,18.9509065 C36.0609225,20.30701 35.5112629,21.0283661 34.2732804,21.0283661 C33.0346171,21.0283661 32.4849574,20.30701 32.4849574,18.9509065 L32.4849574,10.5960407 C32.4849574,10.3669987 32.343571,10.1999841 32.0823578,10.1999841 L28.8486251,10.1999841 C28.6312122,10.1999841 28.4435291,10.3656203 28.4435291,10.5960407 L28.4435291,19.7742633 C28.4435291,22.6119036 30.4751366,24.8935942 34.2331112,24.8935942 C38.031482,24.8935942 40.1039395,22.6119036 40.1039395,19.7742633 L40.1039395,10.5960407 C40.1039395,10.3823907 39.9203414,10.1999841 39.6997513,10.1999841 Z M63.1018183,16.0516982 L60.7647434,15.2283415 C60.0755129,14.9813804 59.9926781,14.5906075 59.9926781,14.3640925 C59.9926781,13.994455 60.3385416,13.6250471 61.0291338,13.6250471 C61.7798663,13.6250471 62.8598954,13.8352512 63.9156414,14.6595269 C64.0642901,14.7769196 64.2730791,14.7592303 64.3888208,14.6087563 L66.2027885,12.2905384 C66.3185302,12.1407536 66.3035518,11.9149278 66.1594421,11.7917918 C64.6169,10.4660128 62.718509,10.005172 60.9676318,10.0047125 C57.5943282,10.0047125 55.5849613,12.1226048 55.5849613,14.4263497 C55.5849613,16.2352535 56.6198284,17.9017239 58.8363957,18.6619046 L60.9072646,19.3825715 C61.9228414,19.731763 62.0866954,19.9996296 62.0866954,20.4315244 C62.0866954,20.8222972 61.6793299,21.2737191 60.8670954,21.2737191 C59.7194369,21.2737191 58.372521,20.5760253 57.4651968,19.8149257 C57.3197253,19.6927087 57.1166099,19.7108574 57.0026838,19.8615611 L55.1403769,22.3376045 C55.0259969,22.4878487 55.0443794,22.7182691 55.1853119,22.8418645 C56.5308661,24.0224534 58.5300205,24.8954321 61.0500127,24.8954321 C64.2188393,24.8954321 66.5152911,23.0433388 66.5152911,20.2477394 C66.5152911,18.3336187 65.3365412,16.8316358 63.1018183,16.0516982 Z M48.2948218,16.3436866 L46.1849184,16.3436866 L46.1849184,13.838008 L48.2948218,13.838008 C49.472437,13.838008 49.9381272,14.3716737 49.9381272,15.0905027 C49.9381272,15.809102 49.472437,16.3436866 48.2948218,16.3436866 Z M51.5015482,19.2394489 C53.2254189,18.3763487 54.1177648,17.0213938 54.1177648,15.0077995 C54.1177648,12.4612287 52.0900153,10.1999841 48.6613372,10.1999841 L42.475283,10.1999841 C42.2721676,10.1999841 42.1074059,10.4104179 42.1074059,10.6162571 L42.1074059,24.2459819 C42.1074059,24.4520508 42.2721676,24.618606 42.475283,24.618606 L45.8168144,24.618606 C46.0194759,24.618606 46.1849184,24.4520508 46.1849184,24.2459819 L46.1849184,19.8358312 L47.5048279,19.8358312 L49.8659589,24.2910092 C49.9621833,24.4724969 50.2054679,24.618606 50.4081294,24.618606 L54.2375915,24.618606 C54.4404799,24.618606 54.5228608,24.4743347 54.4207358,24.296293 L51.5015482,19.2394489 Z M11.1165404,10.1999841 L1.41443442,10.1999841 C1.12167596,10.1999841 0.959183673,10.4235126 0.959183673,10.6277436 L0.959183673,24.1972789 C0.959183673,24.4221857 1.12598791,24.618606 1.36473357,24.618606 L4.63432354,24.618606 C4.83562335,24.618606 4.99947731,24.3994423 4.99947731,24.1972789 L4.99947731,19.817223 L9.14598099,19.817223 C9.34728079,19.817223 9.54540338,19.654803 9.58602645,19.4547071 L10.2121664,16.4454576 C10.2512009,16.2681051 10.1597422,16.0728335 9.91668464,16.0728335 L4.99947731,16.0728335 L4.99947731,13.8860218 L10.4568126,13.8860218 C10.6597011,13.8860218 10.856462,13.7238316 10.8986737,13.5248843 L11.4916797,10.6865548 C11.5427423,10.4384451 11.4074833,10.1999841 11.1165404,10.1999841 Z M134.910021,13.8851029 C135.111321,13.8851029 135.308082,13.7238316 135.350066,13.5248843 L135.943526,10.684717 C135.994589,10.4384451 135.931498,10.1999841 135.593351,10.1999841 L125.839275,10.1999841 C125.562856,10.1999841 125.411257,10.4235126 125.411257,10.6272842 L125.411257,24.1972789 C125.411257,24.4221857 125.577607,24.618606 125.816353,24.618606 L134.692381,24.618606 C134.893908,24.618606 135.090215,24.4573346 135.132426,24.2583874 L135.725886,21.4179903 C135.778765,21.1719481 135.713858,20.9327979 135.377527,20.9327979 L129.482642,20.9327979 L129.482642,19.2808006 L133.597374,19.2808006 C133.798673,19.2808006 133.99725,19.1176914 134.037646,18.9192036 L134.66424,15.9085757 C134.703047,15.7326015 134.611362,15.5368705 134.368077,15.5368705 L129.482642,15.5368705 L129.482642,13.8851029 L134.910021,13.8851029 Z M103.183174,18.3788757 L101.866215,18.3788757 L103.183174,13.969644 L104.503311,18.3788757 L103.183174,18.3788757 Z M105.86112,10.5298781 C105.80688,10.3474715 105.608757,10.1999841 105.42289,10.1999841 L100.983174,10.1999841 C100.795491,10.1999841 100.59873,10.3474715 100.546079,10.5298781 L96.4565381,24.265509 C96.4011636,24.4465373 96.5076006,24.618606 96.6968723,24.618606 L100.344779,24.618606 C100.532462,24.618606 100.726273,24.4465373 100.777108,24.2643604 L101.355363,22.1903467 L105.01734,22.1903467 L105.64643,24.265509 C105.700443,24.4465373 105.897431,24.618606 106.084887,24.618606 L109.712142,24.618606 C109.898236,24.618606 110.007623,24.4465373 109.952249,24.265509 L105.86112,10.5298781 Z M95.3211345,10.1999841 L92.090579,10.1999841 C91.86545,10.1999841 91.6834405,10.3711338 91.6834405,10.5960407 L91.6834405,18.9509065 C91.6834405,20.30701 91.1337808,21.0283661 89.8951176,21.0283661 C88.6557734,21.0283661 88.1061137,20.30701 88.1061137,18.9509065 L88.1061137,10.5960407 C88.1061137,10.3669987 87.9647273,10.1999841 87.7051027,10.1999841 L84.4704622,10.1999841 C84.2525955,10.1999841 84.0646854,10.3656203 84.0646854,10.5960407 L84.0646854,19.7742633 C84.0646854,22.6119036 86.0969737,24.8935942 89.8542675,24.8935942 C93.653773,24.8935942 95.7248689,22.6119036 95.7248689,19.7742633 L95.7248689,10.5960407 C95.7248689,10.3823907 95.5421785,10.1999841 95.3211345,10.1999841 Z M117.601415,16.3436866 L115.489696,16.3436866 L115.489696,13.838008 L117.601415,13.838008 C118.777214,13.838008 119.242678,14.3716737 119.242678,15.0905027 C119.242678,15.809102 118.777214,16.3436866 117.601415,16.3436866 Z M120.806099,19.2394489 C122.530423,18.3763487 123.422315,17.0213938 123.422315,15.0077995 C123.422315,12.4612287 121.395247,10.1999841 117.966342,10.1999841 L111.78006,10.1999841 C111.577399,10.1999841 111.411956,10.4104179 111.411956,10.6162571 L111.411956,24.2459819 C111.411956,24.4520508 111.577399,24.618606 111.78006,24.618606 L115.121592,24.618606 C115.324707,24.618606 115.489696,24.4520508 115.489696,24.2459819 L115.489696,19.8358312 L116.810059,19.8358312 L119.170736,24.2910092 C119.266961,24.4724969 119.510245,24.618606 119.712907,24.618606 L123.541461,24.618606 C123.745257,24.618606 123.828092,24.4743347 123.724151,24.296293 L120.806099,19.2394489 Z M74.9633016,21.0961368 C73.1025833,21.0961368 71.8425872,19.4613693 71.8425872,17.4473155 C71.8425872,15.4314239 73.1055336,13.7984942 74.9633016,13.7984942 C76.8197079,13.7984942 78.0826543,15.4314239 78.0826543,17.4473155 C78.0826543,19.4613693 76.8228851,21.0961368 74.9633016,21.0961368 Z M82.376445,22.8335942 C81.9230098,23.0061224 81.0821803,23.2351644 80.0831704,23.0070413 L80.0786315,23.0061224 C80.2231952,22.8774729 80.3625391,22.7453774 80.4964364,22.6054711 C82.4138908,20.5447819 82.9578769,17.4608697 82.0192343,14.8338929 C81.0460961,12.1101993 78.4764031,10.2606331 75.5926188,10.0251586 C72.7017992,9.78945433 69.7762572,11.2229773 68.3807752,13.7771292 C66.9210679,16.446836 67.1943092,19.9693051 69.1812086,22.3075097 C70.8978171,24.3266175 73.5936913,25.1688123 76.1184493,24.8124991 C76.1529449,24.8464993 76.1903907,24.8830266 76.2307868,24.921162 C77.6292191,26.2575086 79.9029764,27 81.8422175,27 L82.6426509,23.0573524 C82.6603526,22.9142299 82.5566389,22.765364 82.376445,22.8335942 Z M19.3421453,21.0961368 C17.4825617,21.0961368 16.2227926,19.4613693 16.2227926,17.4473155 C16.2227926,15.4314239 17.485512,13.7984942 19.3421453,13.7984942 C21.1985516,13.7984942 22.4614979,15.4314239 22.4614979,17.4473155 C22.4614979,19.4613693 21.2012749,21.0961368 19.3421453,21.0961368 Z M19.9714625,10.0251586 C17.0817776,9.78945433 14.15442,11.2229773 12.7593919,13.7771292 C11.2994577,16.446836 11.5731528,19.9693051 13.5600523,22.3075097 C16.3880082,25.6353964 21.8741655,25.7707081 24.8750531,22.6054711 C26.7927345,20.5457008 27.3367205,17.4608697 26.397851,14.8338929 C25.4247128,12.1101993 22.8550198,10.2606331 19.9714625,10.0251586 L19.9714625,10.0251586 Z" id="foursquare" fill="#8F9CB3"></path>
            </g>
        </g>
    </g>
</svg>