<?xml version="1.0" encoding="UTF-8" standalone="no"?>
<svg width="125px" height="34px" viewBox="0 0 125 34" version="1.1" xmlns="http://www.w3.org/2000/svg" xmlns:xlink="http://www.w3.org/1999/xlink">
    <!-- Generator: Sketch Internal 3.5 (25638) - http://www.bohemiancoding.com/sketch -->
    <title>logo-booking</title>
    <desc>Created with Sketch Internal.</desc>
    <defs></defs>
    <g id="@SVG" stroke="none" stroke-width="1" fill="none" fill-rule="evenodd">
        <g id="logos-companies" transform="translate(-873.000000, 0.000000)">
            <g id="logo-booking" transform="translate(872.591837, 0.000000)">
                <rect id="bounds" style="fill-opacity: 0;" fill="#F9FAFB" x="0.408163265" y="0" width="125" height="34"></rect>
                <g id="Booking-+-.com" transform="translate(0.408163, 8.000000)" fill="#8F9CB3">
                    <path d="M50.5731175,0.0828279699 C51.6321108,-0.26167449 52.8627594,0.510246722 53.0057705,1.62456592 C53.2167329,2.6864837 52.3789468,3.79554172 51.3074086,3.87445951 C50.3090487,4.0066205 49.3081797,3.22312468 49.2021758,2.2144501 C49.0543558,1.2886918 49.6721891,0.323369394 50.5731175,0.0828279699 Z M37.9436024,0.523084015 C38.5639447,0.526872069 39.1855413,0.51529746 39.8073471,0.523084015 C40.2092001,0.530660123 40.6488966,0.617154021 40.9345008,0.926090864 C41.2529306,1.26575303 41.2932831,1.75925228 41.2945376,2.20308593 C41.2895197,4.41110048 41.2945376,6.61911503 41.2907741,8.82691912 C41.7342341,8.79892961 42.3357591,8.91614884 42.6061003,8.45947789 C43.3669447,7.29065281 44.1135716,6.11277848 44.8731615,4.94142803 C46.1278544,4.9439534 47.3838017,4.94269071 48.639958,4.94269071 C47.6390891,6.45117797 46.6281843,7.95208911 45.6225065,9.45657787 C45.4366338,9.74278639 45.2181446,10.004583 44.9869014,10.2539632 C45.4454152,10.7093715 45.6894123,11.3160915 45.9938337,11.8744085 C46.7875037,13.4782285 47.7666283,14.9764038 48.6715292,16.5179313 C47.6744237,16.5053044 46.6762728,16.5408701 45.6791673,16.5013059 C45.0941598,16.4899418 44.5419778,16.1631169 44.2628552,15.6428908 C43.5904519,14.4448135 42.9826545,13.2086453 42.3244687,12.0015188 C42.1235423,11.6326044 41.6357572,11.7510863 41.2932831,11.7052088 C41.2895197,13.3102914 41.2957921,14.9141113 41.2895197,16.5179313 C40.1749109,16.5179313 39.0605111,16.5154059 37.9446479,16.5179313 C37.9408844,11.1862454 37.9446479,5.85455947 37.9436024,0.523084015 Z M57.9931797,6.23862605 C58.7322797,5.38021094 59.7950365,4.82315657 60.9196812,4.71498658 C62.1124862,4.60197631 63.4328303,4.77475366 64.3603119,5.60412702 C65.2018614,6.34300798 65.5391085,7.49015698 65.6076869,8.57774935 C65.649294,11.2232841 65.5683798,13.8711338 65.649294,16.5154059 C64.995917,16.5053044 64.3414947,16.5486566 63.6906267,16.4912045 C63.2306493,16.4581642 62.7643995,16.240772 62.5281384,15.8274532 C62.2490158,15.3249047 62.3019132,14.7270236 62.2981497,14.1714423 C62.2968953,12.5966641 62.3056766,11.0210441 62.2943863,9.4452137 C62.2803779,8.84859521 62.1300489,8.08930084 61.4856624,7.87822206 C60.6175597,7.64420451 59.6369716,7.91631305 58.997603,8.54975984 C58.3619979,9.17668277 58.0904022,10.0976008 58.0663579,10.9739039 C58.0651035,12.8207907 58.0676124,14.6685192 58.0663579,16.5166686 C56.9607396,16.5179313 55.8551213,16.519194 54.7492939,16.5166686 L54.7492939,4.94269071 C55.5517453,4.98856826 56.3920403,4.81558046 57.1629206,5.11062777 C57.6392062,5.28740362 57.8742128,5.77332676 57.9931797,6.23862605 Z M49.5674397,4.94269071 C50.3797179,4.98456975 51.2214765,4.82694462 52.0074106,5.087689 C52.5949271,5.29497973 52.8830402,5.938528 52.8817857,6.53135844 C52.8905671,9.85979516 52.8817857,13.1882319 52.8855492,16.5166686 C51.7901758,16.5179313 50.6958478,16.5179313 49.6002653,16.5166686 C49.6165736,12.6576939 49.5762211,8.80145498 49.5674397,4.94269071 Z M17.1294173,7.65051793 C16.4294154,7.85654598 15.8418989,8.37803473 15.5222146,9.03315762 C14.8157312,10.5096569 15.087536,12.6286521 16.5759809,13.5137941 C17.7397237,14.1994318 19.4140413,13.8650309 20.1531413,12.7035714 C20.9543383,11.4343629 20.9049952,9.62198955 19.9471969,8.44790328 C19.2737482,7.64420451 18.1175324,7.36052136 17.1294173,7.65051793 Z M16.6062976,4.83473118 C18.500359,4.47339292 20.5955559,4.89176243 22.0524297,6.20958431 C24.4355306,8.32836914 24.5948501,12.4173629 22.4693365,14.7716384 C20.1696587,17.3496196 15.6131647,17.3473046 13.3473579,14.7247086 C11.1589111,12.250899 11.4748319,7.89863546 14.1663267,5.91201163 C14.880128,5.36632141 15.7269045,5.00750853 16.6062976,4.83473118 Z M30.0156834,7.64294182 C29.0641575,7.90095039 28.3566286,8.75073715 28.1354213,9.69817153 C27.7979652,11.0414575 28.1366758,12.7063072 29.3738059,13.4769658 C30.3707023,14.0874738 31.7644337,13.9767784 32.6225006,13.1665558 C33.3478013,12.4962807 33.6081066,11.4547763 33.5600181,10.4917688 C33.5271924,9.58621349 33.1594196,8.65014327 32.429101,8.08930084 C31.7581613,7.55371211 30.8306797,7.4228138 30.0156834,7.64294182 Z M29.3888597,4.84862071 C31.0531414,4.52305852 32.8752791,4.76465218 34.2953547,5.73502533 C35.4958956,6.52357189 36.3399541,7.81087888 36.650857,9.21372152 C37.0702727,11.0949112 36.6912095,13.2109602 35.408709,14.6815669 C33.1581651,17.3193151 28.5991622,17.3803449 26.2779491,14.807204 C24.198015,12.5356344 24.2561395,8.60826423 26.438523,6.42445114 C27.2332385,5.61170313 28.2857503,5.08390095 29.3888597,4.84862071 Z M71.4542084,7.76121329 C70.7125994,8.04363375 70.3032196,8.81934302 70.1779803,9.56979859 C70.0010981,10.5696344 70.1275918,11.6913192 70.7454251,12.5230075 C71.5426495,13.6118626 73.4103667,13.6691043 74.215118,12.5610985 C74.7637456,11.7813907 74.7900897,10.7678759 74.7244384,9.85095637 C74.6587871,9.07756203 74.3503932,8.21788423 73.6148476,7.85528329 C72.9491348,7.53982258 72.14292,7.49920622 71.4542084,7.76121329 Z M69.803935,5.05969949 C71.4960245,4.37932292 73.6250925,4.50895854 75.0263508,5.76175215 C75.2237229,5.37389752 75.5597155,5.04707264 75.9981576,4.96815485 C76.6590614,4.85493413 77.3325101,4.93258924 77.9984319,4.90965047 C78.0009409,8.45821521 77.9996864,12.0055173 77.9996864,15.5538716 C77.9996864,16.8498069 77.6118418,18.1853064 76.7184403,19.1468407 C75.5649425,20.4112089 73.8197466,20.9438514 72.1542103,20.9987782 C70.6038775,21.0242423 69.0395363,20.6515399 67.679885,19.8935082 C67.9414448,19.2486973 68.1459257,18.5756864 68.4746004,17.960338 C68.6399832,17.6396161 69.0167465,17.4729418 69.3667475,17.5367073 C69.9176749,17.6373012 70.4382856,17.8713188 70.9979945,17.94245 C71.9785826,18.0899737 73.0894279,18.0695603 73.9157146,17.4476881 C74.5425383,16.9670261 74.7346834,16.128814 74.6903583,15.372045 C73.6401463,16.2584496 72.1770001,16.411024 70.8704553,16.1721661 C69.560147,15.930362 68.3736145,15.1049872 67.674658,13.9654143 C66.7283591,12.4455629 66.5437409,10.5401717 66.8975053,8.80671617 C67.2186531,7.19910817 68.2586201,5.67778362 69.803935,5.05969949 Z M3.45847172,9.60662689 C3.13126054,9.81539075 3.07689958,10.2337603 3.0681182,10.5911 C3.06560923,11.6340775 3.06937268,12.6768446 3.06937268,13.7185594 C4.02466205,13.7135087 4.9812059,13.726346 5.93774975,13.7162445 C6.59091761,13.7031968 7.25809388,13.3536436 7.5664878,12.7595504 C8.03148311,11.8603085 7.94053304,10.5936254 7.14560851,9.90925031 C6.49494961,9.35998249 5.59653017,9.42858836 4.80306921,9.42353762 C4.35563667,9.44268833 3.85656123,9.34840788 3.45847172,9.60662689 Z M3.36877613,3.41273782 C3.10094385,3.65054343 3.07815407,4.03208464 3.0681182,4.36648562 C3.06560923,5.22637386 3.07062716,6.08499942 3.0681182,6.94467722 C3.89942275,6.94088916 4.73093639,6.95604138 5.56245003,6.94088916 C6.06027099,6.93078768 6.56185541,6.71192235 6.86648588,6.30744237 C7.46654726,5.48333019 7.43246712,4.12489196 6.57711829,3.48891979 C5.99064715,3.05792344 5.23001184,3.17850982 4.55029073,3.15956955 C4.15345571,3.16967103 3.67967902,3.1061159 3.36877613,3.41273782 L3.36877613,3.41273782 Z M0.00257810024,2.20834712 C-0.0517828618,1.31015744 0.761958923,0.500145244 1.64636996,0.523084015 C2.9947309,0.523084015 4.34288275,0.521821331 5.69124369,0.523084015 C7.01932381,0.553598894 8.4243456,0.946504266 9.36332668,1.94107887 C10.8114191,3.44451538 10.7242325,6.11803967 9.23181496,7.56023598 C9.05618724,7.72543722 8.87052365,7.87695938 8.68862351,8.03332183 C9.45678571,8.42138691 10.1682871,8.98222934 10.5511137,9.77582663 C11.2448432,11.201608 11.16142,13.0190321 10.2782635,14.3442197 C9.30645675,15.7967279 7.50083649,16.4122867 5.82526437,16.4505881 C3.88562343,16.4569015 1.94472801,16.4505881 0.00383258398,16.4531135 C0.00257810024,11.7052088 0.00508706772,6.95730406 0.00257810024,2.20834712 L0.00257810024,2.20834712 Z" id="Booking"></path>
                    <path d="M84.9678115,6.48574286 C86.5767299,4.87289388 89.0836253,4.36976327 91.2501165,4.93846531 C92.0880342,5.17244082 92.9670997,5.56482857 93.4367659,6.33857143 C93.9041462,7.10835918 93.6564284,8.04696735 93.71815,8.89606531 C93.0649815,8.88232653 92.411813,8.92395918 91.762593,8.87857959 C91.3053958,8.8269551 90.9953329,8.43082041 90.8583816,8.02177959 C90.7577982,7.70974286 90.4124065,7.6029551 90.1322693,7.51989796 C88.9695338,7.2442898 87.6467792,7.74388163 87.0087813,8.76929388 C86.3896947,9.75536327 86.3204917,11.0701224 86.7966002,12.1282163 C87.2675133,13.1698653 88.4028171,13.7762449 89.5156766,13.8064286 C90.853394,13.8767878 92.0978016,13.1396816 92.9907909,12.1923306 C93.4444552,12.9546245 93.907679,13.7106735 94.3598886,14.4744245 C92.1092316,17.0912449 87.6769126,17.3945388 85.1373901,15.0379224 C82.7574709,12.8853061 82.6957493,8.73765306 84.9678115,6.48574286 Z M110.79301,6.36500816 C111.475065,5.54463673 112.420632,4.90557551 113.492136,4.75840408 C114.534546,4.61373061 115.694995,4.7962898 116.506313,5.51320408 C116.878305,5.82524082 117.114177,6.25801224 117.369168,6.66434694 C118.131649,5.59001633 119.352365,4.84146122 120.671171,4.73446531 C121.845545,4.62746939 123.168091,4.89558367 123.95925,5.83918776 C124.724224,6.74990204 124.885075,7.99034694 124.897544,9.14024082 C124.89505,11.5545184 124.902531,13.9698367 124.892348,16.3841143 C124.071056,16.3299918 123.195731,16.5212939 122.418288,16.1815714 C121.819152,15.8947224 121.713581,15.1563673 121.725011,14.5612286 C121.725011,12.7999592 121.731245,11.0374408 121.723764,9.27617143 C121.689682,8.72620408 121.614452,8.01678367 121.046696,7.75512245 C120.31331,7.45828163 119.457936,7.74762857 118.920314,8.29239184 C118.207086,9.01076327 117.913025,10.0486653 117.862941,11.0374408 C117.865435,12.8161959 117.858993,14.5951592 117.867721,16.3753714 C116.809102,16.3891102 115.750275,16.3778694 114.692694,16.3816163 C114.693941,14.134702 114.691448,11.8890367 114.693941,9.64212245 C114.681472,9.08362041 114.633882,8.46475102 114.246927,8.02573469 C113.867454,7.58276327 113.198283,7.56132245 112.680611,7.72868571 C111.957201,7.9928449 111.476312,8.66979184 111.194928,9.35797959 C110.855771,10.1644041 110.799245,11.0511796 110.797998,11.9154735 C110.799245,13.4038408 110.797998,14.8934571 110.799245,16.3816163 C109.76307,16.3816163 108.728142,16.3816163 107.692174,16.3803673 C107.690927,12.5759755 107.690927,8.77158367 107.692174,4.96594286 C108.50079,5.00632653 109.382557,4.82126939 110.12862,5.22260816 C110.551943,5.44784082 110.677464,5.93973061 110.79301,6.36500816 Z M99.8659975,7.58775918 C99.1550559,7.76886122 98.5409569,8.27594694 98.2069951,8.92770612 C97.5475921,10.2397592 97.6808027,12.0324612 98.7772447,13.0743184 C99.7770519,14.0341592 101.542872,13.9737918 102.493634,12.9710694 C103.112721,12.3268041 103.360231,11.404849 103.330097,10.5278571 C103.326357,9.55677551 102.919451,8.54010612 102.10564,7.97515102 C101.464941,7.51490204 100.620996,7.40790612 99.8659975,7.58775918 Z M99.3537288,4.81002857 C101.232809,4.47925714 103.30225,4.91556735 104.72538,6.23553061 C107.051683,8.3515102 107.183231,12.3671878 105.070772,14.6769673 C102.790189,17.1892898 98.326282,17.1955347 96.0606622,14.6607306 C93.9968325,12.3746816 94.0936752,8.4331102 96.3455791,6.30713878 C97.1658325,5.51695102 98.2371286,5.00632653 99.3537288,4.81002857 Z M80.3975021,12.7433388 C81.4962301,12.4036163 82.7447941,13.2766531 82.8038141,14.4267551 C82.9181133,15.4380122 82.1043024,16.4344898 81.0868308,16.502351 C80.083283,16.6307878 79.0874244,15.8293592 79.0007647,14.8203918 C78.868801,13.9032245 79.4968237,12.9633673 80.3975021,12.7433388 Z" id=".com" fill-opacity="0.5"></path>
                </g>
            </g>
        </g>
    </g>
</svg>