<?xml version="1.0" encoding="UTF-8" standalone="no"?>
<svg width="121px" height="34px" viewBox="0 0 121 34" version="1.1" xmlns="http://www.w3.org/2000/svg" xmlns:xlink="http://www.w3.org/1999/xlink">
    <!-- Generator: Sketch Internal 3.5 (25638) - http://www.bohemiancoding.com/sketch -->
    <title>logo-autodesk</title>
    <desc>Created with Sketch Internal.</desc>
    <defs>
        <linearGradient x1="12.9171776%" y1="56.7749414%" x2="99.6841138%" y2="20.1786715%" id="linearGradient-1">
            <stop stop-color="#8F9CB3" stop-opacity="0.6" offset="0%"></stop>
            <stop stop-color="#8F9CB3" offset="100%"></stop>
        </linearGradient>
        <linearGradient x1="73.5628048%" y1="10.3816293%" x2="18.5781462%" y2="100.102528%" id="linearGradient-2">
            <stop stop-color="#8F9CB3" stop-opacity="0.4" offset="0%"></stop>
            <stop stop-color="#8F9CB3" offset="100%"></stop>
        </linearGradient>
        <linearGradient x1="28.0890158%" y1="0.30973165%" x2="81.5840713%" y2="99.6597275%" id="linearGradient-3">
            <stop stop-color="#8F9CB3" offset="0%"></stop>
            <stop stop-color="#8F9CB3" stop-opacity="0.7" offset="100%"></stop>
        </linearGradient>
    </defs>
    <g id="@SVG" stroke="none" stroke-width="1" fill="none" fill-rule="evenodd">
        <g id="logos-companies" transform="translate(-112.000000, 0.000000)">
            <g id="logo-autodesk" transform="translate(111.408163, 0.000000)">
                <rect id="bounds" style="fill-opacity: 0;" fill="#F9FAFB" x="0.591836735" y="0" width="121" height="34"></rect>
                <g id="Autodesk" transform="translate(0.591837, 8.000000)">
                    <path d="M32.162142,5.45140368 L30.1256267,10.092855 L34.21654,10.092855 L32.162142,5.45140368 L32.162142,5.45140368 Z M112.56113,8.70104142 L112.56113,3.09781819 L110.569847,3.09781819 L110.569847,14.6983659 L112.56113,14.6983659 L112.56113,8.72206908 L118.416487,14.6983659 L121,14.6983659 L115.117668,8.71171516 L120.437223,3.09576445 L117.888423,3.09576445 L112.56113,8.70104142 Z M38.3916069,14.6983659 L36.1857326,14.6983659 L34.9802333,11.8991189 L29.3608815,11.8991189 L28.1385515,14.6983659 L26,14.6983659 L31.2290898,3.01566861 L33.1625171,3.01566861 L38.3916069,14.6983659 L38.3916069,14.6983659 Z M57.6297679,14.6983659 L55.5238259,14.6983659 L55.5238259,4.98725854 L51.7547998,4.98725854 L51.7547998,3.09781819 L61.5671011,3.09781819 L60.7581753,4.98725854 L57.6297679,4.98725854 L57.6297679,14.6983659 Z M97.6146328,4.98725854 L91.2505223,4.98725854 L91.2505223,7.93745536 L95.3267088,7.93745536 L95.3267088,9.76220292 L91.2505223,9.76220292 L91.2505223,12.8448659 L97.6177886,12.8448659 L97.6177886,14.6983659 L89.148788,14.6983659 L89.148788,3.09781819 L97.6146328,3.09781819 L97.6146328,4.98725854 Z M104.075426,4.87301044 C102.861511,4.87301044 101.829579,5.23138799 101.824319,6.01797022 C101.818008,6.93907239 102.410238,7.25842889 104.645566,7.96799589 C107.115472,8.76073935 108.427215,9.56683211 108.41354,11.5281533 C108.400917,13.7390039 106.650524,15 104.094361,15 C102.28506,15 100.663001,14.4270067 99.4259437,13.3652233 L100.195948,11.5456101 C101.318346,12.4636317 102.678477,13.1146671 104.148008,13.1208283 C105.434506,13.1269896 106.349675,12.5160021 106.349675,11.6113298 C106.349675,10.8545268 105.901558,10.3513606 103.733552,9.68081465 C101.246816,8.88499059 99.7446751,8.05527982 99.7572982,6.07855554 C99.772025,4.11209995 101.661272,2.99383878 104.036505,3.00513435 C106.41279,3.01642992 107.750831,3.86462434 107.953852,3.97963375 L107.206989,5.63392093 C106.722054,5.37823036 105.658564,4.87301044 104.075426,4.87301044 Z M68.0534457,13.1280164 C65.7181853,13.1280164 64.0130244,11.2806777 64.0130244,9.00102687 C64.0130244,6.72137601 65.7181853,4.87301044 68.0534457,4.87301044 C70.388706,4.87301044 72.0949188,6.72137601 72.0949188,9.00102687 C72.0949188,11.2806777 70.388706,13.1280164 68.0534457,13.1280164 Z M68.0534457,3 C64.6589028,3 61.9081343,5.68731816 61.9081343,9.00102687 C61.9081343,12.3147356 64.6589028,15 68.0534457,15 C71.4469366,15 74.1998089,12.3147356 74.1998089,9.00102687 C74.1998089,5.68731816 71.4469366,3 68.0534457,3 Z M80.9037344,12.8417853 L78.5032551,12.8438391 L78.5032551,4.98828541 L80.9132017,4.98828541 C83.2474102,4.98828541 84.9441557,6.60355154 84.9441557,8.88217554 C84.9441557,11.1607995 83.236891,12.8417853 80.9037344,12.8417853 Z M80.9037344,3.09781819 L76.3952092,3.09781819 L76.3952092,14.6983659 L80.9037344,14.697339 C84.2961735,14.697339 87.0479939,12.1948574 87.0479939,8.88217554 C87.0479939,5.56846683 84.2961735,3.09781819 80.9037344,3.09781819 Z M49.4345959,9.61681823 C49.4345959,13.0753156 47.3560038,14.9401111 44.3412037,14.9401111 C41.3274555,14.9401111 39.2488634,13.0753156 39.2488634,9.61681823 L39.2488634,3.15678057 L41.3537535,3.15678057 L41.3537535,9.86121323 C41.3537535,11.8903079 42.5739796,13.0814768 44.3412037,13.0814768 C46.1105316,13.0814768 47.3307577,11.8903079 47.3307577,9.86121323 L47.3307577,3.15678057 L49.4345959,3.15678057 L49.4345959,9.61681823 Z" fill="#8F9CB3"></path>
                    <path d="M4.05524829,20.7815496 C3.46704509,20.7815496 3.16137822,20.5579878 2.8679501,20.0386663 L0.187650458,15.0323196 C0.00294415428,14.6735445 0,14.5540504 0,14.2955495 L4.21244433,14.4826588 L5.17656873,15.4541162 L13.6261983,15.4541162 L6.61040133,19.8333068 C6.26843377,20.0370901 4.9678176,20.7815496 4.05524829,20.7815496 L4.05524829,20.7815496 Z" id="path4460" fill="url(#linearGradient-1)"></path>
                    <path d="M5.18043758,15.4741233 L1.53672829,15.4741233 C0.436202162,15.4741233 0,14.8941274 0,14.3155567 C0,13.9494528 0.116916442,13.7498032 0.278569122,13.3429204 L5.58860669,0.570133275 L5.64567029,0.458050888 L5.71917903,0.343050855 L5.87199968,0.192966147 L6.09639455,0.0721185947 L6.4213803,0 L6.98043315,0.0146187963 L10.6703749,1.39656757 L9.42266252,5.36114278 L5.18043758,15.4741233 Z" id="path4458" fill="url(#linearGradient-2)"></path>
                    <path d="M15.7667577,20.8263003 L7.38522038,0.833457386 C7.24085434,0.493029685 7.0093919,0.0537966902 6.41026311,0.0537966902 C5.87495091,0.0537966902 5.61994088,0.314969187 5.47593145,0.595667104 C5.55039609,0.393240927 5.77573298,1.77635684e-15 6.42883367,1.77635684e-15 L12.2135801,1.77635684e-15 C12.7466759,1.77635684e-15 13.0024115,0.316278799 13.1189557,0.605855618 L21.5948355,20.8263003 L15.7667577,20.8263003 Z" id="path4456" fill="url(#linearGradient-3)"></path>
                </g>
            </g>
        </g>
    </g>
</svg>