<?xml version="1.0" encoding="UTF-8" standalone="no"?>
<svg width="78px" height="34px" viewBox="0 0 78 34" version="1.1" xmlns="http://www.w3.org/2000/svg" xmlns:xlink="http://www.w3.org/1999/xlink">
    <!-- Generator: Sketch Internal 3.5 (25638) - http://www.bohemiancoding.com/sketch -->
    <title>logo-sega</title>
    <desc>Created with Sketch Internal.</desc>
    <defs></defs>
    <g id="@SVG" stroke="none" stroke-width="1" fill="none" fill-rule="evenodd">
        <g id="logos-companies" transform="translate(-1695.000000, 0.000000)">
            <g id="logo-sega" transform="translate(1694.142857, 0.000000)">
                <path d="M0.857142857,0 L78.8571429,0 L78.8571429,34 L0.857142857,34 L0.857142857,0 Z" id="bounds" style="fill-opacity: 0;" fill="#F9FAFB"></path>
                <path d="M56.1484422,27.9767694 L56.1484422,27.9792884 L45.4926519,27.9748102 C41.9143196,27.9748102 38.9891683,25.0298429 38.9891683,21.3985936 L38.9891683,10.9560229 C38.9891683,7.3250534 41.8892924,4.38428436 45.4678998,4.38428436 L56.1484422,4.38428436 L56.1484422,7.6729525 L45.4926519,7.6729525 C43.7088487,7.6729525 42.2630495,9.13815909 42.2630495,10.955743 L42.2630495,21.3983137 C42.2630495,23.2142183 43.7192996,24.6920197 45.5011777,24.6920197 L52.9122393,24.6920197 L52.9122393,15.7846273 L46.9909806,15.7846273 L46.9909806,12.5040759 L56.1484422,12.5040759 L56.1484422,25.7028784 L62.2591921,7.4633174 C62.8603938,5.46492676 64.8215872,4 67.1540626,4 C69.4829626,4 71.4502066,5.47136415 72.0470079,7.47143412 L78.8571429,27.9764895 L65.7627181,27.9764895 L65.7627181,24.6920197 L74.3671072,24.6920197 L68.8110799,8.03232695 C68.5377064,7.37627266 67.8952513,6.91110105 67.1482871,6.91110105 C66.3971976,6.91110105 65.7583177,7.37627266 65.4874194,8.03652525 L58.8147963,27.9767694 L56.1484422,27.9767694 Z M0.857142857,28 L11.1642032,27.9893643 C15.3811404,27.9893643 18.798584,24.5221285 18.798584,20.2499388 C18.798584,15.9693524 15.3811404,12.5018368 11.1642032,12.5018368 L8.48739828,12.5166708 C8.27645516,12.5166708 8.10539046,12.3406221 8.10539046,12.1239898 C8.10539046,11.9073576 8.27645516,11.731029 8.48739828,11.731029 L18.775757,11.7332681 L18.7798824,8.4485184 L8.48519809,8.4485184 C6.49485212,8.4485184 4.87551302,10.093972 4.87551302,12.1155932 C4.87551302,14.1391737 6.4945771,15.7781899 8.48519809,15.7781899 L11.1746541,15.8142952 C13.5907366,15.8142952 15.5458796,17.7972921 15.5458796,20.2437813 C15.5458796,22.6919498 13.5910117,24.6794248 11.1746541,24.6794248 L0.861268212,24.6794248 L0.857142857,28 Z M0.865391667,23.9083371 L11.1764042,23.9083371 C13.1726163,23.9083371 14.7871833,22.2693209 14.7871833,20.2435014 C14.7871833,18.219921 13.1726163,16.582864 11.1764042,16.582864 L8.48756711,16.553196 C6.07616498,16.553196 4.11954723,14.56796 4.11954723,12.1153133 C4.11954723,9.66938394 6.07616498,7.68386808 8.48756711,7.68386808 L18.7798824,7.68162899 L18.775758,4.38428436 L8.4897668,4.38428436 C4.27819935,4.38428436 0.857142857,7.84760177 0.857142857,12.1239898 C0.857142857,16.4003779 4.27819935,19.8656544 8.4897668,19.8656544 L11.1513828,19.8698527 C11.3537536,19.8698527 11.524779,20.0377847 11.524779,20.2499388 C11.524779,20.4581745 11.3537536,20.6258266 11.1513828,20.6258266 L0.861267262,20.6342232 L0.865391667,23.9083371 Z M26.7896704,24.7004163 C25.0014668,24.7004163 23.536691,23.2500437 23.536691,21.3983137 L23.536691,10.9199175 C23.536691,9.13843898 25.0014668,7.67323239 26.7896704,7.67323239 L37.7914404,7.67519159 L37.7914404,4.38428436 L26.7896704,4.38428436 C23.2094129,4.38428436 20.3092887,7.3250534 20.3092887,10.9560229 L20.3092887,21.3985936 C20.3092887,25.0298429 23.2094129,27.9748102 26.7896704,27.9748102 L37.7455115,27.9792884 L37.7433113,24.6964979 L26.7896704,24.7004163 Z M24.3254587,10.9560229 C24.3254587,9.5675052 25.423078,8.442081 26.7896704,8.442081 L37.7914404,8.442081 L37.7914404,11.7374664 L28.3127512,11.7374664 C27.553411,11.7374664 27.5429601,12.5040759 27.5429601,12.5040759 L35.4507144,12.5040759 L35.4507144,15.7846273 L24.3216084,15.7846273 L24.3254587,10.9560229 Z M26.7896704,23.9021796 C25.4272034,23.9021796 24.3213334,22.7831928 24.3213334,21.3985936 L24.3213334,16.5657909 L35.4504393,16.5657909 L35.4504393,19.8530595 L27.5426851,19.8530595 C27.553136,20.6258266 28.3124762,20.629745 28.3124762,20.629745 L37.7452364,20.629745 L37.7430363,23.8977014 L26.7896704,23.9021796 Z M43.0223897,21.3983137 C43.0223897,22.7896302 44.1282597,23.9212119 45.4926519,23.9212119 L52.1484987,23.9212119 L52.1484987,16.5615926 L46.9989563,16.5615926 L46.9989563,19.8530595 L48.9100955,19.8530595 L48.916146,20.6258266 L47.0135326,20.6258266 C46.5982469,20.6258266 46.2583177,20.2756884 46.2583177,19.8530595 L46.2412662,12.5018368 C46.2412662,12.5018368 46.239066,11.7374664 47.0050068,11.7184341 L56.1520175,11.7184341 L56.1478922,8.43984191 L45.4921019,8.442081 C44.1277097,8.442081 43.0218397,9.5675052 43.0218397,10.9560229 L43.0218397,21.3983137 L43.0223897,21.3983137 Z M66.1612273,8.39310084 C66.3047896,7.97495019 66.6950482,7.67351227 67.1562628,7.67351227 C67.6177524,7.67351227 68.0118613,7.97495019 68.1515733,8.39310084 L73.3242176,23.9444425 L65.750067,23.9444425 L65.7583177,20.2860442 L68.2893601,20.2860442 L67.1499372,16.8397999 L63.4382184,27.9764895 L59.6200654,27.9764895 L66.1612273,8.39310084 Z" id="Sega" fill="#8F9CB3"></path>
            </g>
        </g>
    </g>
</svg>