<?xml version="1.0" encoding="UTF-8" standalone="no"?>
<svg width="84px" height="34px" viewBox="0 0 84 34" version="1.1" xmlns="http://www.w3.org/2000/svg" xmlns:xlink="http://www.w3.org/1999/xlink">
    <!-- Generator: Sketch Internal 3.5 (25638) - http://www.bohemiancoding.com/sketch -->
    <title>logo-fitbit</title>
    <desc>Created with Sketch Internal.</desc>
    <defs></defs>
    <g id="@SVG" stroke="none" stroke-width="1" fill="none" fill-rule="evenodd">
        <g id="logos-companies" transform="translate(-324.000000, 0.000000)">
            <g id="logo-fitbit" transform="translate(323.040816, 0.000000)">
                <path d="M0.959183673,0 L83.9591837,0 L83.9591837,34 L0.959183673,34 L0.959183673,0 Z" id="bounds" style="fill-opacity: 0;" fill="#F9FAFB"></path>
                <path d="M13.6037037,5.71525424 C13.6037037,6.65084746 12.8351852,7.43050847 11.912963,7.43050847 C10.9907407,7.43050847 10.2222222,6.65084746 10.2222222,5.71525424 C10.2222222,4.77966102 10.9907407,4 11.912963,4 C12.8351852,4 13.6037037,4.77966102 13.6037037,5.71525424 L13.6037037,5.71525424 Z M11.912963,8.83389831 C10.9138889,8.83389831 10.1453704,9.61355932 10.1453704,10.6271186 C10.1453704,11.640678 10.9138889,12.420339 11.912963,12.420339 C12.912037,12.420339 13.6805556,11.640678 13.6805556,10.6271186 C13.6805556,9.61355932 12.912037,8.83389831 11.912963,8.83389831 L11.912963,8.83389831 Z M11.912963,13.6677966 C10.9138889,13.6677966 10.0685185,14.5254237 10.0685185,15.5389831 C10.0685185,16.5525424 10.9138889,17.4101695 11.912963,17.4101695 C12.912037,17.4101695 13.7574074,16.5525424 13.7574074,15.5389831 C13.7574074,14.5254237 12.912037,13.6677966 11.912963,13.6677966 L11.912963,13.6677966 Z M11.912963,18.579661 C10.9138889,18.579661 10.1453704,19.359322 10.1453704,20.3728814 C10.1453704,21.3864407 10.9138889,22.1661017 11.912963,22.1661017 C12.912037,22.1661017 13.6805556,21.3864407 13.6805556,20.3728814 C13.6805556,19.4372881 12.912037,18.579661 11.912963,18.579661 L11.912963,18.579661 Z M11.912963,23.5694915 C10.9907407,23.5694915 10.2222222,24.3491525 10.2222222,25.2847458 C10.2222222,26.220339 10.9907407,27 11.912963,27 C12.8351852,27 13.6037037,26.220339 13.6037037,25.2847458 C13.6037037,24.3491525 12.8351852,23.5694915 11.912963,23.5694915 L11.912963,23.5694915 Z M16.6009259,8.6 C15.525,8.6 14.6027778,9.53559322 14.6027778,10.6271186 C14.6027778,11.7186441 15.525,12.6542373 16.6009259,12.6542373 C17.6768519,12.6542373 18.5990741,11.7186441 18.5990741,10.6271186 C18.5990741,9.53559322 17.6768519,8.6 16.6009259,8.6 L16.6009259,8.6 Z M16.6009259,13.4338983 C15.4481481,13.4338983 14.5259259,14.3694915 14.5259259,15.5389831 C14.5259259,16.7084746 15.4481481,17.6440678 16.6009259,17.6440678 C17.7537037,17.6440678 18.6759259,16.7084746 18.6759259,15.5389831 C18.6759259,14.3694915 17.7537037,13.4338983 16.6009259,13.4338983 L16.6009259,13.4338983 Z M16.6009259,18.3457627 C15.525,18.3457627 14.6027778,19.2813559 14.6027778,20.3728814 C14.6027778,21.4644068 15.525,22.4 16.6009259,22.4 C17.6768519,22.4 18.5990741,21.4644068 18.5990741,20.3728814 C18.5990741,19.2813559 17.6768519,18.3457627 16.6009259,18.3457627 L16.6009259,18.3457627 Z M21.4425926,13.2 C20.212963,13.2 19.137037,14.2135593 19.137037,15.5389831 C19.137037,16.7864407 20.1361111,17.8779661 21.4425926,17.8779661 C22.7490741,17.8779661 23.7481481,16.8644068 23.7481481,15.5389831 C23.6712963,14.2135593 22.6722222,13.2 21.4425926,13.2 L21.4425926,13.2 Z M7.14814815,9.06779661 C6.30277778,9.06779661 5.61111111,9.76949153 5.61111111,10.6271186 C5.61111111,11.4847458 6.30277778,12.1864407 7.14814815,12.1864407 C7.99351852,12.1864407 8.68518519,11.4847458 8.68518519,10.6271186 C8.68518519,9.76949153 7.99351852,9.06779661 7.14814815,9.06779661 L7.14814815,9.06779661 Z M7.14814815,13.9016949 C6.22592593,13.9016949 5.53425926,14.6033898 5.53425926,15.5389831 C5.53425926,16.4745763 6.22592593,17.1762712 7.14814815,17.1762712 C8.07037037,17.1762712 8.76203704,16.4745763 8.76203704,15.5389831 C8.76203704,14.6033898 8.07037037,13.9016949 7.14814815,13.9016949 L7.14814815,13.9016949 Z M7.14814815,18.8135593 C6.30277778,18.8135593 5.61111111,19.5152542 5.61111111,20.3728814 C5.61111111,21.2305085 6.30277778,21.9322034 7.14814815,21.9322034 C7.99351852,21.9322034 8.68518519,21.2305085 8.68518519,20.3728814 C8.68518519,19.5152542 7.99351852,18.8135593 7.14814815,18.8135593 L7.14814815,18.8135593 Z M2.38333333,14.1355932 C1.61481481,14.1355932 1,14.759322 1,15.5389831 C1,16.3186441 1.61481481,16.9423729 2.38333333,16.9423729 C3.15185185,16.9423729 3.76666667,16.3186441 3.76666667,15.5389831 C3.76666667,14.759322 3.15185185,14.1355932 2.38333333,14.1355932 Z M41.1166667,12.4983051 C40.962963,12.4983051 40.8092593,12.6542373 40.8092593,12.8101695 L40.8092593,25.0508475 C40.8092593,25.2067797 40.962963,25.3627119 41.1166667,25.3627119 L42.5768519,25.3627119 C42.7305556,25.3627119 42.8842593,25.2067797 42.8842593,25.0508475 L42.8842593,12.8101695 C42.8842593,12.6542373 42.7305556,12.4983051 42.5768519,12.4983051 L41.1166667,12.4983051 Z M41.8851852,7.35254237 C41.1166667,7.35254237 40.5018519,7.97627119 40.5018519,8.7559322 C40.5018519,9.53559322 41.1166667,10.159322 41.8851852,10.159322 C42.6537037,10.159322 43.2685185,9.53559322 43.2685185,8.7559322 C43.2685185,7.97627119 42.6537037,7.35254237 41.8851852,7.35254237 Z M72.087963,12.4983051 C71.9342593,12.4983051 71.7805556,12.6542373 71.7805556,12.8101695 L71.7805556,25.0508475 C71.7805556,25.2067797 71.9342593,25.3627119 72.087963,25.3627119 L73.5481481,25.3627119 C73.7018519,25.3627119 73.8555556,25.2067797 73.8555556,25.0508475 L73.8555556,12.8101695 C73.8555556,12.6542373 73.7018519,12.4983051 73.5481481,12.4983051 L72.087963,12.4983051 Z M72.7796296,7.35254237 C72.0111111,7.35254237 71.3962963,7.97627119 71.3962963,8.7559322 C71.3962963,9.53559322 72.0111111,10.159322 72.7796296,10.159322 C73.5481481,10.159322 74.162963,9.53559322 74.162963,8.7559322 C74.162963,7.97627119 73.5481481,7.35254237 72.7796296,7.35254237 Z M53.1055556,14.5254237 C53.2592593,14.5254237 53.412963,14.3694915 53.412963,14.2135593 L53.412963,12.7322034 C53.412963,12.5762712 53.2592593,12.420339 53.1055556,12.420339 L50.0314815,12.420339 L50.0314815,7.74237288 C50.0314815,7.58644068 49.8777778,7.43050847 49.7240741,7.43050847 L48.2638889,7.43050847 C48.1101852,7.43050847 47.9564815,7.58644068 47.9564815,7.74237288 L47.9564815,12.420339 L46.4194444,12.420339 C46.2657407,12.420339 46.112037,12.5762712 46.112037,12.7322034 L46.112037,14.2135593 C46.112037,14.3694915 46.2657407,14.5254237 46.4194444,14.5254237 L47.9564815,14.5254237 L47.9564815,21.620339 C47.9564815,23.8033898 49.4166667,25.2067797 51.4916667,25.2067797 L53.0287037,25.2067797 C53.1824074,25.2067797 53.3361111,25.0508475 53.3361111,24.8949153 L53.3361111,23.4135593 C53.3361111,23.2576271 53.1824074,23.1016949 53.0287037,23.1016949 L51.7222222,23.1016949 C50.7231481,23.1016949 50.0314815,22.4 50.0314815,21.3084746 L50.0314815,14.4474576 L53.1055556,14.4474576 L53.1055556,14.5254237 Z M83.6925926,14.5254237 C83.8462963,14.5254237 84,14.3694915 84,14.2135593 L84,12.7322034 C84,12.5762712 83.8462963,12.420339 83.6925926,12.420339 L80.6185185,12.420339 L80.6185185,7.74237288 C80.6185185,7.58644068 80.4648148,7.43050847 80.3111111,7.43050847 L78.8509259,7.43050847 C78.6972222,7.43050847 78.5435185,7.58644068 78.5435185,7.74237288 L78.5435185,12.420339 L77.0064815,12.420339 C76.8527778,12.420339 76.6990741,12.5762712 76.6990741,12.7322034 L76.6990741,14.2135593 C76.6990741,14.3694915 76.8527778,14.5254237 77.0064815,14.5254237 L78.5435185,14.5254237 L78.5435185,21.620339 C78.5435185,23.8033898 80.0037037,25.2067797 82.0787037,25.2067797 L83.6157407,25.2067797 C83.7694444,25.2067797 83.9231481,25.0508475 83.9231481,24.8949153 L83.9231481,23.4135593 C83.9231481,23.2576271 83.7694444,23.1016949 83.6157407,23.1016949 L82.2324074,23.1016949 C81.2333333,23.1016949 80.5416667,22.4 80.5416667,21.3084746 L80.5416667,14.4474576 L83.6925926,14.4474576 L83.6925926,14.5254237 Z M31.9712963,14.5254237 L31.9712963,24.9728814 C31.9712963,25.1288136 32.125,25.2847458 32.2787037,25.2847458 L33.7388889,25.2847458 C33.8925926,25.2847458 34.0462963,25.1288136 34.0462963,24.9728814 L34.0462963,14.5254237 L37.4277778,14.5254237 C37.5814815,14.5254237 37.7351852,14.3694915 37.7351852,14.2135593 L37.7351852,12.7322034 C37.7351852,12.5762712 37.5814815,12.420339 37.4277778,12.420339 L34.0462963,12.420339 L34.0462963,9.69152542 C34.0462963,8.6 34.8148148,7.82033898 35.737037,7.82033898 L37.4277778,7.82033898 C37.5814815,7.82033898 37.7351852,7.66440678 37.7351852,7.50847458 L37.7351852,6.02711864 C37.7351852,5.87118644 37.5814815,5.71525424 37.4277778,5.71525424 L35.8138889,5.71525424 C33.662037,5.71525424 31.9712963,7.50847458 31.9712963,9.61355932 L31.9712963,12.420339 L30.4342593,12.420339 C30.2805556,12.420339 30.1268519,12.5762712 30.1268519,12.7322034 L30.1268519,14.2135593 C30.1268519,14.3694915 30.2805556,14.5254237 30.4342593,14.5254237 L31.9712963,14.5254237 Z M67.1694444,13.979661 C66.0166667,12.7322034 64.4027778,12.0305085 62.712037,12.0305085 C61.0981481,12.0305085 59.4842593,12.7322034 58.4851852,13.7457627 L58.4851852,5.94915254 C58.4851852,5.79322034 58.3314815,5.63728814 58.1777778,5.63728814 L56.7175926,5.63728814 C56.5638889,5.63728814 56.4101852,5.79322034 56.4101852,5.94915254 L56.4101852,18.8135593 C56.4101852,23.5694915 59.5611111,25.6745763 62.6351852,25.6745763 C65.7092593,25.6745763 68.8601852,23.5694915 68.8601852,18.8135593 C68.937037,16.9423729 68.3222222,15.2271186 67.1694444,13.979661 Z M62.712037,23.7254237 C59.637963,23.7254237 58.4851852,21.2305085 58.4851852,18.8915254 C58.4851852,16.0067797 60.1759259,14.1355932 62.712037,14.1355932 C65.2481481,14.1355932 66.9388889,16.0847458 66.9388889,18.8915254 C66.862037,21.2305085 65.7861111,23.7254237 62.712037,23.7254237 Z" id="fitbit" fill="#8F9CB3"></path>
            </g>
        </g>
    </g>
</svg>