<?xml version="1.0" encoding="UTF-8" standalone="no"?>
<svg width="62px" height="34px" viewBox="0 0 62 34" version="1.1" xmlns="http://www.w3.org/2000/svg" xmlns:xlink="http://www.w3.org/1999/xlink">
    <!-- Generator: Sketch Internal 3.5 (25638) - http://www.bohemiancoding.com/sketch -->
    <title>logo-ibm</title>
    <desc>Created with Sketch Internal.</desc>
    <defs></defs>
    <g id="@SVG" stroke="none" stroke-width="1" fill="none" fill-rule="evenodd">
        <g id="logos-companies" transform="translate(-2810.000000, 0.000000)">
            <g id="logo-ibm" transform="translate(2809.204082, 0.000000)">
                <rect id="bounds" style="fill-opacity: 0;" fill="#F9FAFB" x="0.795918367" y="0" width="62" height="34"></rect>
                <path d="M0.795918367,4 L0.795918367,5.7104375 L12.8641216,5.7104375 L12.8641216,4 L0.795918367,4 L0.795918367,4 Z M14.5739657,4 L14.5739657,5.7104375 L31.7716993,5.7104375 C31.7716987,5.7104375 30.0150459,4 27.6884184,4 L14.5739657,4 L14.5739657,4 Z M35.1453716,4 L35.1453716,5.7104375 L45.5497466,5.7104375 L44.9321684,4 L35.1453716,4 L35.1453716,4 Z M53.0091216,4 L52.3915434,5.7104375 L62.7014651,5.7104375 L62.7014651,4 L53.0091216,4 L53.0091216,4 Z M0.795918367,7.32638813 L0.795918367,9.03682513 L12.8641216,9.03682513 L12.8641216,7.32638813 L0.795918367,7.32638813 L0.795918367,7.32638813 Z M14.5739657,7.32881094 L14.5739657,9.03682513 L33.7673249,9.03682513 C33.7673249,9.03682588 33.5431559,7.72039913 33.1521684,7.32881094 L14.5739657,7.32881094 L14.5739657,7.32881094 Z M35.1453716,7.32881094 L35.1453716,9.03682513 L46.6904499,9.03682513 L46.1188868,7.32881094 L35.1453716,7.32881094 L35.1453716,7.32881094 Z M51.7739651,7.32881094 L51.2024026,9.03682513 L62.7014651,9.03682513 L62.7014651,7.32881094 L51.7739651,7.32881094 L51.7739651,7.32881094 Z M4.26404312,10.6527763 L4.26404312,12.3656356 L9.49044931,12.3656356 L9.49044931,10.6527763 L4.26404312,10.6527763 L4.26404312,10.6527763 Z M18.0420907,10.6527763 L18.0420907,12.3656356 L23.268496,12.3656356 L23.268496,10.6527763 L18.0420907,10.6527763 L18.0420907,10.6527763 Z M28.3520124,10.6527763 L28.3520124,12.3656356 L33.5784184,12.3656356 C33.578419,12.3656356 33.9102151,11.4610719 33.9102151,10.6527763 L28.3520124,10.6527763 L28.3520124,10.6527763 Z M38.6134966,10.6527763 L38.6134966,12.3656356 L47.8795907,12.3656356 L47.2620124,10.6527763 L38.6134966,10.6527763 L38.6134966,10.6527763 Z M50.6356841,10.6527763 L50.0156841,12.3656356 L59.3277934,12.3656356 L59.3277934,10.6527763 L50.6356841,10.6527763 L50.6356841,10.6527763 Z M4.26404312,13.9815875 L4.26404312,15.6920238 L9.49044931,15.6920238 L9.49044931,13.9815875 L4.26404312,13.9815875 L4.26404312,13.9815875 Z M18.0420907,13.9815875 L18.0420907,15.6920238 L31.3914657,15.6920238 C31.3914663,15.6920231 32.5081626,14.8143813 32.8639651,13.9815875 L18.0420907,13.9815875 L18.0420907,13.9815875 Z M38.6134966,13.9815875 L38.6134966,15.6920238 L43.8399026,15.6920238 L43.8399026,14.7398969 L44.1716993,15.6920238 L53.7453716,15.6920238 L54.1013874,14.7398969 L54.1013874,15.6920238 L59.3277934,15.6920238 L59.3277934,13.9815875 L49.5167776,13.9815875 L48.9960743,15.4303706 L48.4729499,13.9815875 L38.6134966,13.9815875 L38.6134966,13.9815875 Z M4.26404312,17.3079756 L4.26404312,19.0184119 L9.49044931,19.0184119 L9.49044931,17.3079756 L4.26404312,17.3079756 L4.26404312,17.3079756 Z M18.0420907,17.3079756 L18.0420907,19.0184119 L32.8639651,19.0184119 C32.5080857,18.1883319 31.3914657,17.3079756 31.3914657,17.3079756 L18.0420907,17.3079756 L18.0420907,17.3079756 Z M38.6134966,17.3079756 L38.6134966,19.0184119 L43.8399026,19.0184119 L43.8399026,17.3079756 L38.6134966,17.3079756 L38.6134966,17.3079756 Z M44.7892776,17.3079756 L45.4213874,19.0184119 L52.5998249,19.0184119 L53.2004499,17.3079756 L44.7892776,17.3079756 L44.7892776,17.3079756 Z M54.1013874,17.3079756 L54.1013874,19.0184119 L59.3277934,19.0184119 L59.3277934,17.3079756 L54.1013874,17.3079756 L54.1013874,17.3079756 Z M4.26404312,20.6343637 L4.26404312,22.3448 L9.49044931,22.3448 L9.49044931,20.6343637 L4.26404312,20.6343637 L4.26404312,20.6343637 Z M18.0420907,20.6343637 L18.0420907,22.3448 L23.268496,22.3448 L23.268496,20.6343637 L18.0420907,20.6343637 L18.0420907,20.6343637 Z M28.3520124,20.6343637 L28.3520124,22.3448 L33.9102151,22.3448 C33.9102163,21.5375919 33.5784184,20.6343637 33.5784184,20.6343637 L28.3520124,20.6343637 L28.3520124,20.6343637 Z M38.6134966,20.6343637 L38.6134966,22.3448 L43.8399026,22.3448 L43.8399026,20.6343637 L38.6134966,20.6343637 L38.6134966,20.6343637 Z M45.975996,20.6343637 L46.5887309,22.3448 L51.400996,22.3448 L52.0185743,20.6343637 L45.975996,20.6343637 L45.975996,20.6343637 Z M54.1013874,20.6343637 L54.1013874,22.3448 L59.3277934,22.3448 L59.3277934,20.6343637 L54.1013874,20.6343637 L54.1013874,20.6343637 Z M0.890371027,23.9607519 L0.890371027,25.6736113 L12.9585743,25.6736113 L12.9585743,23.9607519 L0.890371027,23.9607519 L0.890371027,23.9607519 Z M14.5739657,23.9607519 L14.5739657,25.6736113 L33.1521684,25.6736113 C33.5431559,25.2814031 33.7673249,23.9607519 33.7673249,23.9607519 L14.5739657,23.9607519 L14.5739657,23.9607519 Z M35.2398243,23.9607519 L35.2398243,25.6736113 L43.8399026,25.6736113 L43.8399026,23.9607519 L35.2398243,23.9607519 L35.2398243,23.9607519 Z M47.1651368,23.9607519 L47.7948243,25.6736113 L50.2433401,25.6736113 L50.8342776,23.9607519 L47.1651368,23.9607519 L47.1651368,23.9607519 Z M54.1013874,23.9607519 L54.1013874,25.6736113 L62.7959184,25.6736113 L62.7959184,23.9607519 L54.1013874,23.9607519 L54.1013874,23.9607519 Z M0.890371027,27.2895625 L0.890371027,29 L12.9585743,29 L12.9585743,27.2895625 L0.890371027,27.2895625 L0.890371027,27.2895625 Z M14.5739657,27.2895625 L14.5739657,28.9975775 L27.6884184,28.9975775 C30.0150452,28.9975762 31.7716993,27.2895625 31.7716993,27.2895625 L14.5739657,27.2895625 L14.5739657,27.2895625 Z M35.2398243,27.2895625 L35.2398243,29 L43.8399026,29 L43.8399026,27.2895625 L35.2398243,27.2895625 L35.2398243,27.2895625 Z M48.3591216,27.2895625 L48.9645907,28.9951537 L49.0687309,28.9975775 L49.6838874,27.2895625 L48.3591216,27.2895625 L48.3591216,27.2895625 Z M54.1013874,27.2895625 L54.1013874,29 L62.7959184,29 L62.7959184,27.2895625 L54.1013874,27.2895625 L54.1013874,27.2895625 Z" id="ibm" fill="#8F9CB3"></path>
            </g>
        </g>
    </g>
</svg>