<?xml version="1.0" encoding="UTF-8" standalone="no"?>
<svg width="24px" height="34px" viewBox="0 0 24 34" version="1.1" xmlns="http://www.w3.org/2000/svg" xmlns:xlink="http://www.w3.org/1999/xlink">
    <!-- Generator: Sketch Internal 3.5 (25638) - http://www.bohemiancoding.com/sketch -->
    <title>logo-apple</title>
    <desc>Created with Sketch Internal.</desc>
    <defs></defs>
    <g id="@SVG" stroke="none" stroke-width="1" fill="none" fill-rule="evenodd">
        <g id="logos-companies">
            <g id="logo-apple">
                <rect id="bounds" style="fill-opacity: 0;" fill="#F9FAFB" x="0" y="0" width="24" height="34"></rect>
                <path d="M12.2750716,9.22809124 C11.9083076,9.22809124 11.1174846,9.06602803 9.9025788,8.74189676 C8.71059576,8.41776549 7.69054865,8.25570228 6.84240688,8.25570228 C4.87105032,8.25570228 3.23209822,9.03360567 1.92550143,10.5894358 C0.641827393,12.1668746 0,14.1872626 0,16.6506603 C0,19.3301455 0.848129054,22.0528073 2.54441261,24.8187275 C4.24069616,27.6062564 5.95987668,29 7.70200573,29 C8.25215175,29 9.00859117,28.8163284 9.9713467,28.4489796 C10.865334,28.1032396 11.6905406,27.9303721 12.4469914,27.9303721 C13.1805194,27.9303721 14.0401097,28.0924354 15.025788,28.4165666 C16.034389,28.7623067 16.8481344,28.9351741 17.4670487,28.9351741 C18.9570275,28.9351741 20.4355228,27.8871653 21.9025788,25.7911164 C22.3839566,25.0996364 22.7965599,24.4135688 23.1404011,23.7328932 C23.4842424,23.0522175 23.7707725,22.3877583 24,21.7394958 C22.9684762,21.4369733 22.0630411,20.7563078 21.2836676,19.697479 C20.4813713,18.6170414 20.0802292,17.4069695 20.0802292,16.0672269 C20.0802292,14.8355281 20.4584489,13.722694 21.2148997,12.7286915 C21.6275092,12.1668639 22.2807978,11.5186111 23.1747851,10.7839136 C22.8767893,10.4381735 22.5787981,10.1356556 22.2808023,9.87635054 C21.9828065,9.61704552 21.6848152,9.37935282 21.3868195,9.16326531 C20.3094502,8.47178526 19.0831014,8.12605042 17.7077364,8.12605042 C16.8825174,8.12605042 15.8853927,8.30972205 14.7163324,8.67707083 C13.5472721,9.0444196 12.7335266,9.22809124 12.2750716,9.22809124 Z M17.5358166,2.68067227 C17.5358166,2.59423726 17.530086,2.49699934 17.5186246,2.38895558 C17.5071633,2.28091182 17.4785103,2.15126126 17.4326648,2 C15.4154627,2.43217503 13.9770817,3.23708895 13.1174785,4.41476591 C12.2578754,5.59244286 11.816619,6.98078432 11.7936963,8.57983193 C12.5272243,8.51500568 13.1117457,8.42857197 13.5472779,8.32052821 C14.1432695,8.12604945 14.7736356,7.73709776 15.4383954,7.15366146 C16.1490007,6.46218142 16.676216,5.71669067 17.0200573,4.91716687 C17.3638986,4.11764306 17.5358166,3.37215232 17.5358166,2.68067227 C17.5358166,2.68067227 17.5358166,3.37215232 17.5358166,2.68067227 Z" id="Apple" fill="#8F9CB3"></path>
            </g>
        </g>
    </g>
</svg>
