<?xml version="1.0" encoding="UTF-8" standalone="no"?>
<svg width="73px" height="34px" viewBox="0 0 73 34" version="1.1" xmlns="http://www.w3.org/2000/svg" xmlns:xlink="http://www.w3.org/1999/xlink">
    <!-- Generator: Sketch Internal 3.5 (25638) - http://www.bohemiancoding.com/sketch -->
    <title>logo-paypal</title>
    <desc>Created with Sketch Internal.</desc>
    <defs></defs>
    <g id="@SVG" stroke="none" stroke-width="1" fill="none" fill-rule="evenodd">
        <g id="logos-companies" transform="translate(-1421.000000, 0.000000)">
            <g id="logo-paypal" transform="translate(1420.061224, 0.000000)">
                <rect id="bounds" style="fill-opacity: 0;" fill="#F9FAFB" x="0.93877551" y="0" width="72" height="34"></rect>
                <g id="Group" transform="translate(0.938776, 9.000000)" fill="#8F9CB3">
                    <path d="M49.0969371,5.57985026 C48.7867806,7.59323708 47.2316095,7.59323708 45.7269119,7.59323708 L44.8710557,7.59323708 L45.471618,3.83404717 C45.5074616,3.60696259 45.7056983,3.43990356 45.9383157,3.43990356 L46.3311317,3.43990356 C47.3552331,3.43990356 48.3222775,3.43990356 48.8211612,4.01629339 C49.1196136,4.36125945 49.2095882,4.87328455 49.0969371,5.57985026 M48.4422436,0.326530612 L42.7687217,0.326530612 C42.3802947,0.326530612 42.0503877,0.605685538 41.9896732,0.984641967 L39.695686,15.3676295 C39.6503329,15.6511236 39.8727092,15.9078593 40.1623836,15.9078593 L43.0737577,15.9078593 C43.3451445,15.9078593 43.5762989,15.7125955 43.6187259,15.4479046 L44.2697618,11.3697838 C44.3297449,10.9908274 44.6603834,10.7116724 45.0480789,10.7116724 L46.8431824,10.7116724 C50.5804211,10.7116724 52.7376176,8.92392378 53.3008734,5.37952406 C53.5547043,3.83043118 53.3111144,2.61256357 52.5774189,1.75991161 C51.7705733,0.822645326 50.3404888,0.326530612 48.4422436,0.326530612 Z M61.6139436,10.7433486 C61.3513347,12.2779774 60.119487,13.3085364 58.5474913,13.3085364 C57.7596647,13.3085364 57.1283793,13.0575863 56.7231278,12.5831675 C56.3208022,12.113088 56.170113,11.4426823 56.2973942,10.6970638 C56.5417155,9.17545249 57.7940453,8.11234953 59.3419014,8.11234953 C60.113635,8.11234953 60.7397999,8.36546929 61.1530979,8.84422722 C61.569322,9.32660114 61.7331782,10.0006229 61.6139436,10.7433486 Z M65.4001929,5.51534088 L62.6833981,5.51534088 C62.4507807,5.51534088 62.252544,5.68239992 62.2159689,5.91020769 L62.0967343,6.66088856 L61.906544,6.38896563 C61.3184172,5.54499205 60.0068358,5.26222113 58.697449,5.26222113 C55.6961003,5.26222113 53.1321893,7.51137092 52.6333056,10.665243 C52.3736227,12.2389247 52.7422992,13.742456 53.6449715,14.7918182 C54.4737621,15.7558428 55.6565993,16.1572184 57.0662018,16.1572184 C59.4860071,16.1572184 60.82758,14.6211431 60.82758,14.6211431 L60.7061508,15.3674848 C60.6607978,15.6509789 60.8824426,15.9077147 61.17358,15.9077147 L63.6197194,15.9077147 C64.0081464,15.9077147 64.3380534,15.629283 64.398768,15.2503265 L65.867622,6.05557075 C65.9129751,5.77207663 65.6905988,5.51534088 65.4001929,5.51534088 Z M68.6022654,0.721759025 L66.2738977,15.3679911 C66.2285446,15.6514852 66.4501894,15.9082209 66.7405953,15.9082209 L69.0828616,15.9082209 C69.4705571,15.9082209 69.8011956,15.629066 69.8611787,15.2501096 L72.1573604,0.867122082 C72.2027134,0.58362796 71.9810686,0.326892212 71.6899312,0.326892212 L69.0696946,0.326892212 C68.8363457,0.326892212 68.638109,0.493951248 68.6022654,0.721759025 Z" id="pal" fill-opacity="0.5"></path>
                    <path d="M9.18416812,5.6379481 C8.88136367,7.67360149 7.36305648,7.67360149 5.89402642,7.67360149 L5.05845755,7.67360149 L5.64478408,3.87283772 C5.67977799,3.64324175 5.87331574,3.47433517 6.10041908,3.47433517 L6.48392376,3.47433517 C7.48374976,3.47433517 8.42787117,3.47433517 8.91492926,4.05709945 C9.20630712,4.40588058 9.29414898,4.9235683 9.18416812,5.6379481 M8.54499364,0.326530612 L3.00595761,0.326530612 C2.62673789,0.326530612 2.30465109,0.608772786 2.24537569,0.991920193 L0.0057654558,15.5339729 C-0.0385125527,15.8206023 0.17787836,16.0801773 0.461400446,16.0801773 L3.10665437,16.0801773 C3.48515993,16.0801773 3.80724673,15.7979352 3.86652213,15.4155189 L4.47141686,11.491914 C4.5299781,11.1087666 4.85277906,10.8265244 5.23128462,10.8265244 L6.98383676,10.8265244 C10.6324875,10.8265244 12.7385495,9.0190046 13.2884538,5.43540643 C13.5362679,3.86918173 13.2984521,2.63784541 12.5821482,1.77576374 C11.7944281,0.828131988 10.3982425,0.326530612 8.54499364,0.326530612 Z M21.4043985,10.8585509 C21.1480146,12.4101516 19.9453668,13.4521078 18.4106338,13.4521078 C17.641482,13.4521078 17.0251607,13.1983824 16.6295152,12.7187169 C16.2374406,12.2434386 16.0896092,11.5656187 16.2138733,10.8117542 C16.4524032,9.27331504 17.6750476,8.19845495 19.1862132,8.19845495 C19.9396535,8.19845495 20.5509756,8.45437402 20.9544768,8.93842666 C21.3608347,9.42613528 21.5208069,10.1076112 21.4043985,10.8585509 Z M25.1008981,5.57272529 L22.4485026,5.57272529 C22.2213992,5.57272529 22.0278615,5.74163188 21.9921534,5.97195904 L21.8757451,6.73094188 L21.6907773,6.45601168 C21.1158773,5.60270439 19.8353859,5.31680623 18.5570369,5.31680623 C15.6268326,5.31680623 13.1236968,7.59082996 12.6366387,10.7795816 C12.3831114,12.370667 12.7430488,13.8908262 13.624324,14.9517936 C14.4334689,15.9264796 15.5882679,16.3322942 16.964457,16.3322942 C19.326903,16.3322942 20.636675,14.779231 20.636675,14.779231 L20.5181242,15.5338267 C20.4738462,15.820456 20.6902371,16.0800311 20.9744734,16.0800311 L23.3626292,16.0800311 C23.7418489,16.0800311 24.0639357,15.7985201 24.1232111,15.4153727 L25.5572472,6.11892971 C25.6015253,5.83230035 25.3844202,5.57272529 25.1008981,5.57272529 Z M39.227511,5.57279841 L36.5615464,5.57279841 C36.3065908,5.57279841 36.0680609,5.70222034 35.9252286,5.91865476 L32.2472972,11.4640554 L30.688997,6.13508917 C30.5911569,5.80166318 30.2912091,5.57279841 29.9512683,5.57279841 L27.33101,5.57279841 C27.0146365,5.57279841 26.7918181,5.89160046 26.8939432,6.19797214 L29.8291467,15.0205993 L27.0681986,19.0092808 C26.8518077,19.3222332 27.0703411,19.755102 27.4452758,19.755102 L30.1083838,19.755102 C30.3604828,19.755102 30.5968702,19.6286049 30.7411308,19.4165577 L39.6067308,6.31496372 C39.8188367,6.00128006 39.6003033,5.57279841 39.227511,5.57279841 Z" id="pay"></path>
                </g>
            </g>
        </g>
    </g>
</svg>