<?xml version="1.0" encoding="UTF-8" standalone="no"?>
<svg width="67px" height="34px" viewBox="0 0 67 34" version="1.1" xmlns="http://www.w3.org/2000/svg" xmlns:xlink="http://www.w3.org/1999/xlink">
    <!-- Generator: Sketch Internal 3.5 (25638) - http://www.bohemiancoding.com/sketch -->
    <title>logo-stripe</title>
    <desc>Created with Sketch Internal.</desc>
    <defs></defs>
    <g id="@SVG" stroke="none" stroke-width="1" fill="none" fill-rule="evenodd">
        <g id="logos-companies" transform="translate(-1086.000000, 0.000000)">
            <g id="logo-stripe" transform="translate(1085.918367, 0.000000)">
                <rect id="bounds" style="fill-opacity: 0;" fill="#F9FAFB" x="0.0816326531" y="0" width="67" height="34"></rect>
                <path d="M7.08300308,15.59509 C5.6392671,15.0570108 4.84805291,14.6385047 4.84805291,13.9808523 C4.84805291,13.4227445 5.30299365,13.1039326 6.11393628,13.1039326 C7.59727747,13.1039326 9.12007554,13.6819194 10.1683528,14.1999701 L10.7616892,10.5132305 C9.93101817,10.1146034 8.23007083,9.45695099 5.87660169,9.45695099 C4.21525956,9.45695099 2.83070889,9.89533611 1.84191365,10.7124692 C0.813364863,11.5693604 0.279362034,12.8049997 0.279362034,14.2996642 C0.279362034,17.0099395 1.92097573,18.1659131 4.59098988,19.1423775 C6.31166566,19.7601223 6.8852737,20.1986569 6.8852737,20.8761884 C6.8852737,21.5338408 6.3313941,21.9124393 5.32272209,21.9124393 C4.07671549,21.9124393 2.01991459,21.2946945 0.67496913,20.4975899 L0.0816326531,24.2242371 C1.2287004,24.8818895 3.36471172,25.5594209 5.57993345,25.5594209 C7.34006611,25.5594209 8.80367887,25.1409148 9.79262244,24.3438102 C10.900085,23.4668905 11.473693,22.1716142 11.473693,20.4975899 C11.473693,17.7273785 9.79262244,16.5715544 7.08300308,15.59509 L7.08300308,15.59509 Z M21.1327659,13.4227445 L21.7261023,9.75588391 L18.5937307,9.75588391 L18.5937307,5.30447385 L14.3822284,6.00278114 L13.7740585,9.75588391 L12.292794,9.99801957 L11.7383211,13.4227445 L13.7679768,13.4227445 L13.7679768,20.617163 C13.7679768,22.4904261 14.242646,23.7858519 15.2117128,24.5829566 C16.0226555,25.240609 17.1894516,25.5594209 18.8310653,25.5594209 C20.0968004,25.5594209 20.8681378,25.3403031 21.4021406,25.2007014 L21.4021406,21.3145735 C21.1054724,21.3943886 20.4330738,21.5338408 19.9781331,21.5338408 C19.0090663,21.5338408 18.5937307,21.0356691 18.5937307,19.899724 L18.5937307,13.4227445 L21.1327659,13.4227445 L21.1327659,13.4227445 Z M30.5395224,9.54169847 C29.15512,9.54169847 28.0475092,10.2740841 27.6124452,11.5893889 L27.315777,9.75588391 L23.0240259,9.75588391 L23.0240259,25.260488 L27.9288419,25.260488 L27.9288419,15.196463 C28.5420551,14.4391164 29.4121831,14.1652939 30.598856,14.1652939 C30.8560674,14.1652939 31.1328588,14.1652939 31.4691323,14.2250805 L31.4691323,9.66127164 C31.1328588,9.58160602 30.8361906,9.54169847 30.5395224,9.54169847 L30.5395224,9.54169847 Z M35.12809,8.22131178 C36.5520976,8.22131178 37.6991653,7.04560862 37.6991653,5.61073062 C37.6991653,4.15582412 36.5520976,3 35.12809,3 C33.6842057,3 32.537138,4.15582412 32.537138,5.61073062 C32.537138,7.04560862 33.6842057,8.22131178 35.12809,8.22131178 L35.12809,8.22131178 Z M32.6558052,9.75588391 L37.580498,9.75588391 L37.580498,25.260488 L32.6558052,25.260488 L32.6558052,9.75588391 Z M51.536217,11.1508544 C50.6659407,10.0149093 49.4595393,9.45695099 47.9168644,9.45695099 C46.4928569,9.45695099 45.2468503,10.0548168 44.0799058,11.3103351 L43.8228427,9.75588391 L39.5112149,9.75588391 L39.5112149,31 L44.4161792,30.1830163 L44.4161792,25.2007014 C45.1676399,25.4398478 45.9389773,25.5594209 46.6312526,25.5594209 C47.8575308,25.5594209 49.6375402,25.240609 51.0219426,23.7260653 C52.3470112,22.2711588 53.0195581,20.0192972 53.0195581,17.0498471 C53.0195581,14.4192374 52.5250122,12.4264011 51.536217,11.1508544 L51.536217,11.1508544 Z M47.4619237,20.7167077 C47.0663166,21.4740542 46.4532517,21.8726813 45.7412479,21.8726813 C45.2468503,21.8726813 44.811638,21.7729871 44.4161792,21.5737484 L44.4161792,14.1999701 C45.2468503,13.3231999 45.9983109,13.2235057 46.2752507,13.2235057 C47.5212573,13.2235057 48.1343223,14.5787181 48.1343223,17.2292068 C48.1343223,18.7437504 47.9168644,19.9196031 47.4619237,20.7167077 L47.4619237,20.7167077 Z M67.0816327,17.368659 C67.0816327,14.8975301 66.5476298,12.9444519 65.4993526,11.5693604 C64.4313469,10.17439 62.8293385,9.45695099 60.792266,9.45695099 C56.6190339,9.45695099 54.0282302,12.5658533 54.0282302,17.5480188 C54.0282302,20.3381091 54.7203572,22.4306396 56.0850311,23.7658234 C57.3113092,24.9615551 59.0715902,25.5594209 61.3459973,25.5594209 C63.4424034,25.5594209 65.3806853,25.0612492 66.6069635,24.2441161 L66.0729606,20.8563094 C64.8664109,21.5139618 63.4622801,21.8726813 61.8800001,21.8726813 C60.9306617,21.8726813 60.2779916,21.673293 59.8033224,21.2547869 C59.289048,20.8164018 58.9923798,20.0989628 58.8935893,19.0825909 L67.022299,19.0825909 C67.0420274,18.8434446 67.0816327,17.7273785 67.0816327,17.368659 L67.0816327,17.368659 Z M58.8539841,16.0533542 C58.9923798,13.8412506 59.5857163,12.8049997 60.7130556,12.8049997 C61.8206664,12.8049997 62.3942745,13.8612791 62.4733366,16.0533542 L58.8539841,16.0533542 L58.8539841,16.0533542 Z" id="stripe" fill="#8F9CB3"></path>
            </g>
        </g>
    </g>
</svg>