<?xml version="1.0" encoding="UTF-8" standalone="no"?>
<svg width="101px" height="34px" viewBox="0 0 101 34" version="1.1" xmlns="http://www.w3.org/2000/svg" xmlns:xlink="http://www.w3.org/1999/xlink">
    <!-- Generator: Sketch Internal 3.5 (25638) - http://www.bohemiancoding.com/sketch -->
    <title>logo-buzzfeeed</title>
    <desc>Created with Sketch Internal.</desc>
    <defs></defs>
    <g id="@SVG" stroke="none" stroke-width="1" fill="none" fill-rule="evenodd">
        <g id="logos-companies" transform="translate(-2622.000000, 0.000000)">
            <g id="logo-buzzfeeed" transform="translate(2621.163265, 0.000000)">
                <rect id="bounds" style="fill-opacity: 0;" fill="#F9FAFB" x="0.836734694" y="0" width="101" height="34"></rect>
                <path d="M0.836734694,8.01039825 C3.68008016,8.01412583 6.52455292,7.97117768 9.36652954,8.03673438 C11.5572551,8.08729975 13.2737139,9.58481254 13.6432232,11.6302789 C14.0614475,13.9457513 12.8676483,15.9228248 11.0259798,16.4533559 C10.9791973,16.4668076 10.941111,16.5104851 10.8782244,16.5546487 C12.6336552,17.0603834 13.6815511,18.2297076 13.9764982,19.9815058 C14.4630041,22.8719972 12.8788406,25.2471919 9.88580726,25.5831599 C9.22199496,25.6576303 8.54795653,25.6556855 7.87850778,25.65917 C5.53133061,25.6717303 3.18407291,25.6713251 0.836815215,25.675863 C0.836734694,19.7873478 0.836734694,13.8989135 0.836734694,8.01039825 L0.836734694,8.01039825 Z M4.61677698,22.3032989 C4.66557249,22.320154 4.71420697,22.3515953 4.76284145,22.3516764 C5.94101971,22.3536212 7.12129152,22.3955969 8.29689312,22.3395212 C9.51339922,22.2814197 10.2367163,21.5290167 10.2690051,20.4202252 C10.3014549,19.3061664 9.63329448,18.5026309 8.44183031,18.3587141 C7.68880111,18.2677126 6.91950675,18.3093642 6.15745924,18.2986677 C5.6525142,18.2916177 5.14732759,18.2973712 4.61677698,18.2973712 C4.61677698,19.6477258 4.61677698,20.9495409 4.61677698,22.3032989 L4.61677698,22.3032989 Z M4.59101037,15.0103792 C5.68931214,15.0103792 6.73213518,15.012243 7.77495822,15.0087585 C7.9756157,15.0080292 8.18086285,15.0097309 8.37604493,14.9701862 C9.11240634,14.8214073 9.66695211,14.4414378 9.85979909,13.6690194 C10.1673075,12.437542 9.38738439,11.3736434 8.12127757,11.3105178 C7.53259104,11.2812644 6.94148889,11.3024143 6.35143351,11.3018471 C5.77925371,11.3011178 5.2069934,11.301685 4.61693802,11.301685 C4.60526252,11.4292329 4.59197661,11.5070258 4.59189609,11.5848187 C4.59052724,12.7034964 4.59101037,13.8221741 4.59101037,15.0103792 Z M68.6351286,26 C68.1906546,25.9167778 67.7415103,25.8530039 67.3024312,25.7470921 C63.8646017,24.9178687 62.1128748,21.9399414 62.4132974,18.649627 C62.6649244,15.8945438 64.0448874,13.8803567 66.6735648,12.9478957 C70.3433743,11.6459995 74.5992132,13.4037133 75.2271938,18.3178728 C75.3101301,18.9671192 75.3060235,19.6276293 75.3454787,20.3412168 L70.5741465,20.3412168 L65.8681972,20.3412168 C66.0878576,21.5519494 66.6945002,22.4011883 67.7523806,22.85263 C69.4713356,23.5863141 71.0816683,23.2206065 72.5999658,22.237175 C72.6896658,22.1790734 72.772441,22.1100322 72.8596449,22.0476359 C72.8682606,22.0414773 72.88517,22.0468255 72.945963,22.0468255 C73.4104867,22.7348873 73.8900678,23.4454766 74.4289925,24.243988 C73.9401516,24.5508646 73.4891554,24.8834292 72.99653,25.1326095 C72.0903505,25.5908581 71.1160506,25.8337988 70.1036643,25.9186416 C69.9884393,25.9282847 69.8760324,25.9720432 69.7623373,26 L68.6351286,26 Z M72.0742464,18.0158582 C72.1401928,16.4292888 70.6381605,15.2176648 68.7364236,15.2931887 C67.1544342,15.3559902 65.7482214,16.7041569 65.9170733,18.0158582 L72.0742464,18.0158582 Z M82.2431198,26 C81.6962235,25.8892262 81.1403894,25.8109471 80.6038802,25.6620062 C78.0417129,24.9506876 76.2742844,22.7702992 76.0417408,20.1052451 C75.8222415,17.5914819 76.5462832,15.4610916 78.5514086,13.8752515 C81.5899362,11.4721811 87.5614287,12.0172984 88.7475785,17.703066 C88.8326083,18.1105062 88.8825311,18.5286429 88.9081367,18.9443485 C88.9354332,19.3858231 88.9142563,19.8303769 88.9142563,20.3410547 L84.2021874,20.3410547 L79.4990563,20.3410547 C79.5809458,21.051725 79.8552797,21.6232595 80.3103019,22.0959323 C81.3516756,23.1775773 82.6511985,23.3811354 84.0553177,23.1331706 C84.9502243,22.9750728 85.7762052,22.6330272 86.5194914,21.9920464 C87.0197662,22.7300252 87.5060305,23.4474214 88.0352122,24.2281053 C87.640661,24.4938165 87.2831493,24.7748433 86.89045,24.9910427 C85.9143786,25.5284617 84.8579476,25.8120006 83.7517548,25.9162106 C83.6231633,25.9282847 83.4975511,25.9713139 83.3704895,25.999919 C82.9946191,26 82.6189097,26 82.2431198,26 Z M79.5215215,18.0135892 L85.6848948,18.0135892 C85.7641271,16.4758024 84.2975238,15.2542112 82.4546475,15.2904335 C80.8193535,15.3224421 79.4037198,16.6240141 79.5215215,18.0135892 Z M19.9201306,26 C19.5173663,25.9170209 19.1119448,25.8451436 18.7122402,25.749199 C16.236391,25.1553801 14.7738943,23.290296 14.7717203,20.7265346 C14.7697072,18.2690092 14.7713177,15.8115647 14.7713177,13.3540393 L14.7713177,12.9136992 L18.1178367,12.9136992 L18.1178367,13.3829685 C18.1178367,15.7054909 18.1246005,18.0279323 18.1147769,20.3503737 C18.1102678,21.4038188 18.4304179,22.2959248 19.4223519,22.7543355 C20.4973027,23.2511564 21.5982616,23.2330858 22.5927723,22.5202276 C23.3211621,21.998205 23.527134,21.1992884 23.5286639,20.3408116 C23.533012,18.0318219 23.5301938,15.7228322 23.5301938,13.4139236 L23.5301938,12.906163 L26.8404785,12.906163 C26.8404785,13.0518626 26.8405591,13.206638 26.8405591,13.3613324 C26.8405591,15.7918734 26.8416863,18.2224145 26.840237,20.6528745 C26.838546,23.5858279 25.0246572,25.6018788 22.1176199,25.9092416 C21.9741321,25.9243951 21.8336235,25.9689639 21.6916656,25.9998379 C21.1011271,26 20.5105886,26 19.9201306,26 Z M51.5194965,25.6353459 L51.5194965,8.02231029 L63.6924485,8.02231029 L63.6924485,9.73083625 C63.6924485,10.108942 63.6672456,10.4892357 63.6995343,10.8645863 C63.7315816,11.2383163 63.5824573,11.3108419 63.2407276,11.3088971 C60.8388769,11.2951213 58.4368652,11.301604 56.034934,11.301604 L55.2752216,11.301604 L55.2752216,15.0103792 L55.7285529,15.0103792 C57.5401066,15.0103792 59.3517409,15.0208326 61.1630531,15.0017085 C61.5292611,14.9978999 61.614935,15.1150754 61.6065609,15.4630365 C61.5840956,16.3910406 61.5988309,17.3199361 61.5988309,18.2944539 L55.2479251,18.2944539 L55.2479251,25.6352649 C53.9853611,25.6353459 52.7715122,25.6353459 51.5194965,25.6353459 Z M89.7623804,25.628458 L89.7623804,25.1651042 C89.7623804,21.2235176 89.7622998,17.2820121 89.7625414,13.3403445 C89.7625414,12.8229409 89.763105,12.8184029 90.2937362,12.823346 C92.1304124,12.8403632 93.974577,12.7615979 95.8016713,12.9039751 C98.4053067,13.1067228 100.443043,14.2868244 101.407761,16.8732754 C102.3881,19.501459 101.640868,22.5011035 99.6488678,24.1443969 C98.4752792,25.112513 97.0942694,25.5891564 95.6068113,25.6432062 C93.7180382,25.7119233 91.825078,25.6648424 89.9339699,25.666301 C89.8955615,25.666382 89.8570726,25.6500131 89.7623804,25.628458 Z M92.9538971,22.9251557 C93.5954052,22.9251557 94.1960088,22.9253178 94.7965319,22.9251557 C96.9576258,22.9245074 98.3183444,21.6988645 98.5605506,19.5348451 C98.7343947,17.9810945 97.8993149,16.4356905 96.5693552,15.8870076 C95.3978602,15.4038815 94.1740267,15.66076 92.9539777,15.5924481 C92.9538971,18.0598598 92.9538971,20.4587975 92.9538971,22.9251557 Z M33.5869019,15.7906579 L27.9167176,15.7906579 L27.9167176,12.9004906 L38.1674,12.9004906 C38.1674,13.44577 38.140184,13.9937236 38.1753715,14.5377875 C38.2077408,15.0393084 38.0560399,15.4267331 37.7415262,15.8204785 C36.0366623,17.9555687 34.3586924,20.112133 32.6719456,22.2617283 C32.5814404,22.3770401 32.4953638,22.4958363 32.3543721,22.6831874 L38.23544,22.6831874 L38.23544,25.6288632 L27.8855562,25.6288632 C27.8855562,24.8242742 27.8738807,24.0200093 27.896668,23.2166359 C27.9006135,23.0787156 28.0383038,22.9350419 28.1353312,22.8107353 C29.8658007,20.5927471 31.5997325,18.3775951 33.3318929,16.1609034 C33.4040394,16.0684433 33.4655572,15.9674746 33.5869019,15.7906579 Z M39.1515235,15.7938993 C39.1515235,14.8818589 39.1507183,14.0458286 39.1526508,13.2097173 C39.1528118,13.1175003 39.1680302,13.0252834 39.17882,12.9056768 L49.3978577,12.9056768 C49.3978577,13.6827142 49.4063124,14.4472722 49.3888394,15.2112631 C49.3861822,15.3264127 49.2733728,15.447721 49.19253,15.5510397 C47.4329121,17.7982813 45.6704759,20.0432539 43.9095697,22.2894421 C43.8226074,22.4003779 43.7449854,22.51885 43.6095497,22.7086322 L44.1225468,22.7086322 C45.7859426,22.7086322 47.4494188,22.7156011 49.1128146,22.7025546 C49.4218529,22.7001236 49.537239,22.7765389 49.5282207,23.10805 C49.5055943,23.9418113 49.5207322,24.776626 49.5207322,25.6362373 L39.1614275,25.6362373 C39.1614275,24.8035294 39.1548248,23.9847594 39.1698017,23.1663946 C39.1716536,23.0638863 39.2785851,22.956678 39.3514563,22.8633266 C41.0411823,20.6980916 42.7330823,18.5346394 44.4242577,16.3705389 C44.5534128,16.2051481 44.6798303,16.0375692 44.8667187,15.7938182 C42.9164279,15.7938993 41.0630034,15.7938993 39.1515235,15.7938993 Z" id="Buzzfeed" fill="#8F9CB3"></path>
            </g>
        </g>
    </g>
</svg>