<?xml version="1.0" encoding="UTF-8" standalone="no"?>
<svg width="56px" height="34px" viewBox="0 0 56 34" version="1.1" xmlns="http://www.w3.org/2000/svg" xmlns:xlink="http://www.w3.org/1999/xlink">
    <!-- Generator: Sketch Internal 3.5 (25638) - http://www.bohemiancoding.com/sketch -->
    <title>logo-etsy</title>
    <desc>Created with Sketch Internal.</desc>
    <defs></defs>
    <g id="@SVG" stroke="none" stroke-width="1" fill="none" fill-rule="evenodd">
        <g id="logos-companies" transform="translate(-2026.000000, 0.000000)">
            <g id="logo-etsy" transform="translate(2025.122449, 0.000000)">
                <rect id="bounds" style="fill-opacity: 0;" fill="#F9FAFB" x="0.87755102" y="0" width="56" height="34"></rect>
                <path d="M23.3998946,7.80418848 C22.815982,11.0984293 21.203271,12.2963351 19.2290902,12.5141361 L19.2290902,13.4670157 L21.7037675,13.4670157 L21.7037675,21.8251309 C21.7037675,24.1664921 23.2886732,25.3099476 25.4018807,25.3099476 C27.0423971,25.3099476 28.7385242,24.6293194 29.3224368,23.2136126 L28.7385242,22.478534 C28.4604706,22.9413613 27.570699,23.6219895 26.4584845,23.6219895 C25.2350485,23.6219895 24.5677198,22.8052356 24.5677198,20.7361257 L24.5677198,13.3581152 L28.6829135,13.6575916 L28.9053564,11.8062827 L24.5677198,11.9696335 L24.5677198,7.80418848 L23.3998946,7.80418848 L23.3998946,7.80418848 Z M32.1585838,20.6544503 L31.10198,20.6816754 C31.2410068,21.9884817 31.2688122,23.295288 31.10198,24.4931937 C31.10198,24.4931937 33.2151876,25.2554974 35.3562005,25.2554974 C38.2479582,25.2554974 40.5558033,23.8942408 40.5558033,21.2534031 C40.5558033,16.6251309 33.5488519,17.3602094 33.5488519,14.2565445 C33.5488519,12.9769634 34.7444825,12.486911 35.9679184,12.486911 C36.9967169,12.486911 37.8308777,12.8408377 37.9977099,13.3581152 L38.692844,15.4 L39.7216424,15.3455497 C39.7772531,14.2565445 39.8606692,13.0041885 40.0275014,11.9968586 C39.1377298,11.6157068 37.2747705,11.3979058 36.1069453,11.3979058 C33.3820197,11.3979058 31.1853961,12.5685864 31.1853961,15.182199 C31.1853961,19.7560209 38.0255153,18.7486911 38.0255153,22.1790576 C38.0255153,23.3225131 37.2747705,24.1937173 35.6064487,24.1937173 C34.0215431,24.1937173 33.2429929,23.4041885 32.9371339,22.6146597 L32.1585838,20.6544503 L32.1585838,20.6544503 Z M43.530977,29.4481675 C42.6968162,29.4481675 42.4465679,29.0670157 42.3353465,28.5225131 L41.918266,26.3989529 L40.7504408,26.4534031 C40.5836086,27.7057592 40.3333604,29.121466 39.999696,30.2376963 C40.7782462,30.7549738 41.7236285,31 43.0026752,31 C44.8934398,31 47.7295868,30.4827225 50.2876801,24.5748691 L54.7365381,14.2565445 C55.0980078,13.4397906 55.2092293,13.3308901 56.2936384,12.9225131 L56.877551,12.704712 L56.877551,11.7518325 L54.2360416,11.8879581 L51.4277,11.7518325 L51.4277,12.704712 L52.1506394,12.9225131 C52.8735788,13.1403141 53.2072432,13.3853403 53.2072432,13.9570681 C53.2072432,14.2565445 53.1238271,14.3926702 52.9569949,14.773822 C52.6511359,15.5361257 50.6769552,20.3005236 49.7037675,22.3696335 C48.4803316,19.3748691 46.8120098,14.9099476 46.6173723,14.2565445 C46.5617615,14.0931937 46.5339562,13.9570681 46.5339562,13.8209424 C46.5339562,13.3853403 46.8398152,13.0314136 47.5071439,12.895288 L48.4247208,12.704712 L48.4247208,11.7518325 L44.6153862,11.8879581 L41.5846017,11.7518325 L41.5846017,12.704712 L42.0850982,12.8680628 C42.8080376,13.113089 42.8914537,13.1947644 43.3641449,14.2293194 C45.2827149,18.4764398 47.4237278,23.8942408 48.1188618,25.6638743 C46.6173723,28.6314136 44.8378291,29.4481675 43.530977,29.4481675 L43.530977,29.4481675 Z M6.88350931,7.04188482 C6.88350931,6.76963351 6.91131467,6.60628272 7.38400584,6.60628272 L13.7514338,6.60628272 C14.8636483,6.60628272 15.4753663,7.53193717 15.9202521,9.27434555 L16.2817218,10.6628272 L17.366131,10.6628272 C17.5607685,6.71518325 17.7276007,5 17.7276007,5 C17.7276007,5 15.0026752,5.29947644 13.3899641,5.29947644 L5.24299293,5.29947644 L0.87755102,5.16335079 L0.87755102,6.30680628 L2.35123523,6.57905759 C3.38003364,6.76963351 3.6302819,6.98743455 3.71369799,7.91308901 C3.71369799,7.91308901 3.79711408,10.6356021 3.79711408,15.1277487 C3.79711408,19.6198953 3.71369799,22.3151832 3.71369799,22.3151832 C3.71369799,23.1319372 3.38003364,23.4314136 2.35123523,23.6219895 L0.87755102,23.8942408 L0.87755102,25.0376963 L5.24299293,24.9015707 L12.5279979,24.9015707 C14.1685143,24.9015707 17.9778489,25.0376963 17.9778489,25.0376963 C18.061265,24.0575916 18.6173723,19.6198953 18.7007884,19.1298429 L17.6719899,19.1298429 L16.5875808,21.5528796 C15.7256146,23.4586387 14.4743733,23.5947644 13.0841051,23.5947644 L8.94110613,23.5947644 C7.55083801,23.5947644 6.88350931,23.0502618 6.88350931,21.8795812 L6.88350931,15.6722513 C6.88350931,15.6722513 9.96990455,15.6722513 10.9708976,15.7539267 C11.7494477,15.808377 12.2221389,16.026178 12.4723872,17.0879581 L12.8060515,18.5036649 L14.0016821,18.5036649 L13.918266,14.9371728 L14.0850982,11.3434555 L12.8894676,11.3434555 L12.5001925,12.9225131 C12.2499443,13.9570681 12.0831121,14.147644 10.998703,14.2565445 C9.58062947,14.3926702 6.88350931,14.365445 6.88350931,14.365445 L6.88350931,7.04188482 L6.88350931,7.04188482 Z" id="Etsy" fill="#8F9CB3"></path>
            </g>
        </g>
    </g>
</svg>