<?xml version="1.0" encoding="UTF-8" standalone="no"?>
<svg width="49px" height="34px" viewBox="0 0 49 34" version="1.1" xmlns="http://www.w3.org/2000/svg" xmlns:xlink="http://www.w3.org/1999/xlink">
    <!-- Generator: Sketch Internal 3.5 (25638) - http://www.bohemiancoding.com/sketch -->
    <title>logo-soundcloud</title>
    <desc>Created with Sketch Internal.</desc>
    <defs></defs>
    <g id="@SVG" stroke="none" stroke-width="1" fill="none" fill-rule="evenodd">
        <g id="logos-companies" transform="translate(-2354.000000, 0.000000)">
            <g id="logo-soundcloud" transform="translate(2353.632653, 0.000000)">
                <rect id="bounds" style="fill-opacity: 0;" fill="#F9FAFB" x="0.367346939" y="0" width="49" height="34"></rect>
                <path d="M0.92215339,15.7595472 C0.819938337,15.7595472 0.738798552,15.8387925 0.725626509,15.9518491 L0.367346939,18.6805283 L0.725626509,21.3621887 C0.738798552,21.4752453 0.819938337,21.5539623 0.92215339,21.5539623 C1.02120715,21.5539623 1.10182006,21.4757736 1.11762651,21.3632453 L1.11762651,21.3632453 L1.11762651,21.362717 C1.11762651,21.362717 1.11762651,21.362717 1.11762651,21.3632453 L1.54229318,18.6805283 L1.11762651,15.9513208 C1.10234694,15.8387925 1.02068027,15.7595472 0.92215339,15.7595472 L0.92215339,15.7595472 Z M2.93694909,14.2686792 C2.92008887,14.1513962 2.83631468,14.070566 2.73304586,14.070566 C2.62925016,14.070566 2.54336844,14.1540377 2.52914264,14.2686792 C2.52914264,14.2697358 2.04757275,18.6805283 2.04757275,18.6805283 L2.52914264,22.9946415 C2.54284156,23.1103396 2.62872328,23.1938113 2.73304586,23.1938113 C2.8357878,23.1938113 2.91956199,23.1124528 2.93642221,22.9956981 L3.4843792,18.6805283 L2.93694909,14.2686792 L2.93694909,14.2686792 Z M10.5261534,10.1991698 C10.3285727,10.1991698 10.1652394,10.3613585 10.1557555,10.5673962 L9.77218565,18.6842264 L10.1557555,23.9297358 C10.1657663,24.134717 10.3285727,24.2963774 10.5261534,24.2963774 C10.7226803,24.2963774 10.8854867,24.1341887 10.8970781,23.9286792 L10.8970781,23.9302642 L11.3307018,18.6842264 L10.8970781,10.5673962 C10.8854867,10.3613585 10.7226803,10.1991698 10.5261534,10.1991698 L10.5261534,10.1991698 Z M6.59825016,13.0203019 C6.44650823,13.0203019 6.32269102,13.1418113 6.31057275,13.304 L5.87852973,18.6821132 L6.31057275,23.8853585 C6.32216414,24.0464906 6.44650823,24.168 6.59825016,24.168 C6.74841145,24.168 6.87222866,24.0464906 6.8854007,23.8853585 L7.37645447,18.6821132 L6.8854007,13.3029434 C6.87222866,13.1418113 6.74841145,13.0203019 6.59825016,13.0203019 L6.59825016,13.0203019 Z M14.5178093,24.2958491 C14.7628093,24.2958491 14.9619706,24.0977358 14.9719813,23.8441509 L15.3481749,18.6868679 L14.9725082,7.88045283 C14.9624975,7.62686792 14.7633362,7.42875472 14.5183362,7.42875472 C14.2712287,7.42875472 14.0715405,7.62739623 14.0636373,7.88098113 C14.0636373,7.88150943 13.7301211,18.6863396 13.7301211,18.6863396 L14.0636373,23.8457358 C14.0715405,24.0972075 14.2712287,24.2958491 14.5178093,24.2958491 L14.5178093,24.2958491 Z M22.6897448,24.3201509 C23.0269491,24.3201509 23.3051426,24.0417358 23.3114652,23.6993962 L23.3114652,23.7030943 L23.3114652,23.6993962 L23.5738523,18.6900377 L23.3114652,6.20943396 C23.3056695,5.86762264 23.0269491,5.58867925 22.6897448,5.58867925 C22.3520136,5.58867925 22.0732932,5.86709434 22.0680244,6.20996226 L21.833562,18.6858113 C21.833562,18.6937358 22.0680244,23.702566 22.0680244,23.702566 C22.0732932,24.0417358 22.3525405,24.3201509 22.6897448,24.3201509 L22.6897448,24.3201509 Z M18.572691,24.3006038 C18.8661641,24.3006038 19.102734,24.0644528 19.1106373,23.7633208 L19.1106373,23.7670189 L19.4299276,18.6879245 L19.1101104,7.80332075 C19.1022072,7.50218868 18.8656373,7.26656604 18.5721641,7.26656604 C18.2765835,7.26656604 18.0400136,7.50218868 18.033691,7.80332075 L17.7497018,18.6884528 L18.0342179,23.7664906 C18.0405405,24.0644528 18.2771104,24.3006038 18.572691,24.3006038 L18.572691,24.3006038 Z M8.55456199,24.2530566 C8.72895984,24.2530566 8.87016414,24.1130566 8.88333619,23.9286792 L9.34593834,18.6821132 L8.88333619,13.6912453 C8.87069102,13.5068679 8.72948672,13.3679245 8.55456199,13.3679245 C8.37752973,13.3679245 8.23632543,13.5079245 8.22526092,13.6933585 L7.81798135,18.6821132 L8.22526092,23.9281509 C8.23685232,24.1130566 8.37752973,24.2530566 8.55456199,24.2530566 L8.55456199,24.2530566 Z M4.65774479,23.9656604 C4.78525016,23.9656604 4.88851898,23.8647547 4.90327167,23.725283 L5.42277705,18.6810566 L4.90379855,13.4466415 C4.88851898,13.3066415 4.78525016,13.2057358 4.65774479,13.2057358 C4.52865877,13.2057358 4.42538995,13.3071698 4.41221791,13.4466415 C4.41221791,13.4471698 3.95488457,18.6810566 3.95488457,18.6810566 L4.41221791,23.7242264 C4.42486307,23.8642264 4.52813189,23.9656604 4.65774479,23.9656604 L4.65774479,23.9656604 Z M20.6233147,7.62211321 C20.3045512,7.62211321 20.0490136,7.87622642 20.042691,8.20166038 L19.7834652,18.6889811 L20.042691,23.7353208 C20.0490136,24.0565283 20.3040244,24.3106415 20.6233147,24.3106415 C20.9415512,24.3106415 21.1955082,24.0570566 21.2028846,23.7316226 L21.2028846,23.7358491 L21.4937233,18.6895094 L21.2028846,8.20060377 C21.1955082,7.87622642 20.9415512,7.62211321 20.6233147,7.62211321 L20.6233147,7.62211321 Z M12.514605,24.3064151 C12.7348416,24.3064151 12.9166158,24.1262642 12.9271534,23.8964528 L13.3317986,18.6858113 L12.9271534,8.7125283 C12.9160889,8.48218868 12.7348416,8.30256604 12.514605,8.30256604 C12.2922609,8.30256604 12.1110136,8.48271698 12.1015297,8.7125283 C12.1015297,8.7130566 11.7432502,18.6858113 11.7432502,18.6858113 L12.1020566,23.898566 C12.1110136,24.1262642 12.2922609,24.3064151 12.514605,24.3064151 L12.514605,24.3064151 Z M17.0331426,23.814566 L17.0331426,23.8119245 L17.3808846,18.6873962 L17.0331426,7.51698113 C17.0247125,7.23962264 16.8065835,7.02196226 16.5373469,7.02196226 C16.2665297,7.02196226 16.0484007,7.23909434 16.0410244,7.51698113 L15.7322717,18.6868679 L16.0415512,23.8140377 C16.0489276,24.0887547 16.2670566,24.3058868 16.5373469,24.3058868 C16.8071104,24.3058868 17.0241856,24.0887547 17.0331426,23.8124528 L17.0331426,23.814566 L17.0331426,23.814566 Z M43.3340244,12.2484528 C42.5084007,12.2484528 41.7207125,12.4159245 41.0030996,12.7175849 C40.5236373,7.27184906 35.9692717,3 30.4138308,3 C29.054476,3 27.7293684,3.26837736 26.5591641,3.72218868 C26.1044652,3.89864151 25.9832824,4.08037736 25.9790674,4.43275472 L25.9790674,23.6101132 C25.9838093,23.9799245 26.2699061,24.2879245 26.6297663,24.3243774 C26.6450459,24.3259623 43.2260136,24.3344151 43.3334975,24.3344151 C46.6612824,24.3344151 49.3594437,21.6289811 49.3594437,18.2916981 C49.3594437,14.9544151 46.6618093,12.2484528 43.3340244,12.2484528 L43.3340244,12.2484528 Z M24.7472179,4.41584906 C24.3852502,4.41584906 24.0880889,4.71381132 24.0828201,5.07992453 L23.8109491,18.6916226 L24.0833469,23.6317736 C24.0880889,23.9926038 24.3852502,24.2900377 24.7472179,24.2900377 C25.1081319,24.2900377 25.4052932,23.9926038 25.410562,23.6264906 L25.410562,23.6323019 L25.7061426,18.6916226 L25.410562,5.07886792 C25.4052932,4.71381132 25.1081319,4.41584906 24.7472179,4.41584906 L24.7472179,4.41584906 Z M5.23362651,28.1744557 C4.52075554,28.0065702 4.32791683,27.9168201 4.32791683,27.6338433 C4.32791683,27.4342813 4.48861576,27.2278561 4.97018565,27.2278561 C5.38168027,27.2278561 5.70307812,27.3952136 5.9918093,27.691389 L6.6404007,27.0610265 C6.21626092,26.6170275 5.70255124,26.3530566 5.00285232,26.3530566 C4.1155835,26.3530566 3.39638995,26.8551292 3.39638995,27.672911 C3.39638995,28.5609091 3.97490608,28.8248799 4.80316414,29.0175787 C5.65091683,29.2102774 5.80529318,29.3396232 5.80529318,29.6294632 C5.80529318,29.9705136 5.55397059,30.1188652 5.02182006,30.1188652 C4.59135769,30.1188652 4.18671253,29.9710415 3.87163726,29.6030661 L3.22304586,30.1827462 C3.56341145,30.6848188 4.2193792,31 4.97018565,31 C6.19782006,31 6.73734694,30.4208479 6.73734694,29.5650543 C6.73734694,28.5862503 5.94702436,28.3418132 5.23362651,28.1744557 L5.23362651,28.1744557 Z M9.37175554,26.3530566 C8.1451749,26.3530566 7.41965877,27.3055718 7.41965877,28.6767923 C7.41965877,30.0480128 8.1451749,31 9.37175554,31 C10.5983362,31 11.3249061,30.0480128 11.3249061,28.6767923 C11.3249061,27.3055718 10.5983362,26.3530566 9.37175554,26.3530566 L9.37175554,26.3530566 Z M9.37175554,30.1082264 C8.64623941,30.1082264 8.3438093,29.4832453 8.3438093,28.6786415 C8.3438093,27.8735094 8.64623941,27.2485283 9.37175554,27.2485283 C10.0983254,27.2485283 10.3997018,27.8735094 10.3997018,28.6786415 C10.3997018,29.4832453 10.0983254,30.1082264 9.37175554,30.1082264 L9.37175554,30.1082264 Z M14.9545943,28.9537191 C14.9545943,29.6743521 14.6005297,30.1188744 14.0293899,30.1188744 C13.4577233,30.1188744 13.1110351,29.6616816 13.1110351,28.9410487 L13.1110351,26.4233208 L12.2111211,26.4233208 L12.2111211,28.9537191 C12.2111211,30.2661686 12.9440136,31 14.0293899,31 C15.1727233,31 15.8539813,30.246635 15.8539813,28.9410487 L15.8539813,26.4233208 L14.9545943,26.4233208 L14.9545943,28.9537191 L14.9545943,28.9537191 Z M19.7334115,28.3304906 C19.7334115,28.5819623 19.7460566,29.1483019 19.7460566,29.3157736 C19.6880996,29.1995472 19.5405727,28.9744906 19.4315082,28.8064906 L17.837691,26.4227925 L16.9772932,26.4227925 L16.9772932,30.9323774 L17.8640351,30.9323774 L17.8640351,28.9480755 C17.8640351,28.6966038 17.8513899,28.1302642 17.8513899,27.9627925 C17.9088201,28.0784906 18.0574007,28.3040755 18.1659383,28.4720755 L19.8171856,30.9323774 L20.6201534,30.9323774 L20.6201534,26.4227925 L19.7334115,26.4227925 L19.7334115,28.3304906 L19.7334115,28.3304906 Z M23.1829061,26.4233208 L21.7761319,26.4233208 L21.7761319,30.9329057 L23.1180996,30.9329057 C24.274605,30.9329057 25.4184652,30.2624906 25.4184652,28.6781132 C25.4184652,27.0287547 24.4674437,26.4233208 23.1829061,26.4233208 L23.1829061,26.4233208 Z M23.1180996,30.0569811 L22.675519,30.0569811 L22.675519,27.2997736 L23.1507663,27.2997736 C24.1017878,27.2997736 24.4937878,27.7567547 24.4937878,28.6781132 C24.4937878,29.5027925 24.0627986,30.0569811 23.1180996,30.0569811 L23.1180996,30.0569811 Z M28.1998738,27.2474916 C28.604519,27.2474916 28.8616373,27.4280682 29.0223362,27.7369492 L29.8574437,27.3509799 C29.5745082,26.765426 29.0602717,26.3530566 28.212519,26.3530566 C27.0380996,26.3530566 26.2151104,27.3055718 26.2151104,28.6767923 C26.2151104,30.099229 27.0049061,31 28.1803792,31 C28.996519,31 29.5360459,30.6203667 29.8442717,29.9830686 L29.0866158,29.5321551 C28.8489921,29.9318525 28.6108416,30.105565 28.2061964,30.105565 C27.5317878,30.105565 27.1397878,29.487275 27.1397878,28.6767923 C27.1392609,27.8404375 27.5259921,27.2474916 28.1998738,27.2474916 L28.1998738,27.2474916 Z M31.535562,26.4233208 L30.6361749,26.4233208 L30.6361749,30.9329057 L33.3390781,30.9329057 L33.3390781,30.0432453 L31.535562,30.0432453 L31.535562,26.4233208 L31.535562,26.4233208 Z M35.7084652,26.3530566 C34.4808308,26.3530566 33.7553147,27.3055718 33.7553147,28.6767923 C33.7553147,30.0480128 34.4808308,31 35.7084652,31 C36.9350459,31 37.6610889,30.0480128 37.6610889,28.6767923 C37.6610889,27.3055718 36.9350459,26.3530566 35.7084652,26.3530566 L35.7084652,26.3530566 Z M35.7084652,30.1082264 C34.9818953,30.1082264 34.680519,29.4832453 34.680519,28.6786415 C34.680519,27.8735094 34.9818953,27.2485283 35.7084652,27.2485283 C36.4334545,27.2485283 36.7353577,27.8735094 36.7353577,28.6786415 C36.7353577,29.4832453 36.4334545,30.1082264 35.7084652,30.1082264 L35.7084652,30.1082264 Z M41.2902502,28.9537191 C41.2902502,29.6743521 40.9377663,30.1188744 40.3660996,30.1188744 C39.7933792,30.1188744 39.4472179,29.6616816 39.4472179,28.9410487 L39.4472179,26.4233208 L38.5478308,26.4233208 L38.5478308,28.9537191 C38.5478308,30.2661686 39.2801964,31 40.3660996,31 C41.509433,31 42.1901641,30.246635 42.1901641,28.9410487 L42.1901641,26.4233208 L41.2902502,26.4233208 L41.2902502,28.9537191 L41.2902502,28.9537191 Z M44.720777,26.4233208 L43.3145297,26.4233208 L43.3145297,30.9329057 L44.6564975,30.9329057 C45.8135297,30.9329057 46.9563362,30.2624906 46.9563362,28.6781132 C46.9563362,27.0287547 46.0058416,26.4233208 44.720777,26.4233208 L44.720777,26.4233208 Z M44.6564975,30.0569811 L44.2133899,30.0569811 L44.2133899,27.2997736 L44.6891641,27.2997736 C45.6391319,27.2997736 46.0311319,27.7567547 46.0311319,28.6781132 C46.0311319,29.5027925 45.6006695,30.0569811 44.6564975,30.0569811 L44.6564975,30.0569811 Z" id="Soundcloud" fill="#8F9CB3"></path>
            </g>
        </g>
    </g>
</svg>