<?xml version="1.0" encoding="UTF-8" standalone="no"?>
<svg width="46px" height="34px" viewBox="0 0 46 34" version="1.1" xmlns="http://www.w3.org/2000/svg" xmlns:xlink="http://www.w3.org/1999/xlink">
    <!-- Generator: Sketch Internal 3.5 (25638) - http://www.bohemiancoding.com/sketch -->
    <title>logo-nbc</title>
    <desc>Created with Sketch Internal.</desc>
    <defs></defs>
    <g id="@SVG" stroke="none" stroke-width="1" fill="none" fill-rule="evenodd">
        <g id="logos-companies" transform="translate(-2490.000000, 0.000000)">
            <g id="logo-nbc" transform="translate(2489.632653, 0.000000)">
                <rect id="bounds" style="fill-opacity: 0;" fill="#F9FAFB" x="0.367346939" y="0" width="46" height="34"></rect>
                <path d="M5.76394589,10.3472157 C3.85342452,12.0451156 3.15766708,15.892147 6.60204404,18.1410385 L20.3431274,27.3949231 L13.6804737,12.4117826 C12.2844268,8.87608787 8.46523041,8.10493082 5.76394589,10.3472157 Z M17.5921579,3.06226734 C15.3583485,3.10686199 12.0044452,5.7179611 13.4973443,9.70488762 L20.3881125,25.6573835 L22.8092476,8.87840018 C23.3695464,4.7091311 20.1556338,2.78445921 17.5921579,3.06226734 Z M23.8846922,8.23838443 L25.1877477,8.23838443 C25.1877477,8.23838443 25.8835051,8.23838443 25.9780073,8.56062204 C25.4653792,8.97171861 24.0698359,9.02308503 24.2548117,11.2186281 L26.4454824,25.6550712 L33.2890834,9.66062331 C34.6891589,6.08941798 31.7506958,3.10686199 29.144417,3.01569071 C29.0225545,3.00693694 28.9005242,3 28.7741297,3 C26.434404,3 23.7537656,4.66916109 23.8846922,8.23838443 Z M33.0138019,12.5475486 L26.540656,27.3509891 L40.2772073,18.0482156 C43.4439527,15.8435884 42.9333389,12.3187945 41.1606262,10.5764652 C40.4173659,9.75641922 39.0532114,9.12301008 37.607983,9.12301008 C35.90023,9.12267974 34.0731324,10.0117649 33.0138019,12.5475486 Z M38.7393232,20.1547345 L25.8386879,29 L41.7231071,29 C44.9820047,29 47.0759911,25.7016478 46.1452372,22.6748275 C45.5218251,20.772453 43.6765992,19.2790278 41.5354456,19.2768807 C40.6342341,19.2770458 39.6786377,19.5436227 38.7393232,20.1547345 Z M5.39365858,29 L21.0434169,29 L8.13992814,20.1547345 C5.1586621,18.2744921 1.8069409,19.3746586 0.596541175,22.4946321 C-0.4290506,26.0663329 2.13224316,29 5.39365858,29 Z" id="NBC" fill="#8F9CB3"></path>
            </g>
        </g>
    </g>
</svg>