<?xml version="1.0" encoding="UTF-8" standalone="no"?>
<svg width="29px" height="34px" viewBox="0 0 29 34" version="1.1" xmlns="http://www.w3.org/2000/svg" xmlns:xlink="http://www.w3.org/1999/xlink">
    <!-- Generator: Sketch Internal 3.5 (25638) - http://www.bohemiancoding.com/sketch -->
    <title>logo-facebook</title>
    <desc>Created with Sketch Internal.</desc>
    <defs></defs>
    <g id="@SVG" stroke="none" stroke-width="1" fill="none" fill-rule="evenodd">
        <g id="logos-companies" transform="translate(-1580.000000, 0.000000)">
            <g id="logo-facebook" transform="translate(1580.653061, 0.000000)">
                <path d="M-2.27373675e-13,0 L28,0 L28,34 L-2.27373675e-13,34 L-2.27373675e-13,0 Z" id="bounds" style="fill-opacity: 0;" fill="#F9FAFB"></path>
                <path d="M1.5453326,3 C0.691780257,3 -2.27373675e-13,3.69167535 -2.27373675e-13,4.5453326 L-2.27373675e-13,29.4546674 C-2.27373675e-13,30.3081148 0.691780257,31 1.5453326,31 L14.9556303,31 L14.9556303,20.1569687 L11.306736,20.1569687 L11.306736,15.9311712 L14.9556303,15.9311712 L14.9556303,12.8148029 C14.9556303,9.19822102 17.1645222,7.22894482 20.3907319,7.22894482 C21.9360645,7.22894482 23.2643372,7.34403171 23.6513522,7.39543789 L23.6513522,11.1749459 L21.4138197,11.175995 C19.6591905,11.175995 19.3194901,12.0097192 19.3194901,13.2331862 L19.3194901,15.9311712 L23.5040578,15.9311712 L22.9591523,20.1569687 L19.3194901,20.1569687 L19.3194901,31 L26.4546674,31 C27.3081148,31 28,30.3081148 28,29.4546674 L28,4.5453326 C28,3.69167535 27.3081148,3 26.4546674,3 L1.5453326,3 Z" id="FB-Square" fill="#8F9CB3"></path>
            </g>
        </g>
    </g>
</svg>